# Pawn extracted from chessKitExport.obj
g pawn
v -0.031049 0.583004 -0.037956
v -0.041258 0.583004 -0.026504
v -0.047429 0.583004 -0.012457
v -0.048957 0.583004 0.002809
v -0.045693 0.583004 0.017799
v -0.037956 0.583004 0.031048
v -0.026504 0.583004 0.041257
v -0.012458 0.583004 0.047427
v 0.002808 0.583004 0.048956
v 0.017799 0.583004 0.045691
v 0.031047 0.583004 0.037955
v 0.041256 0.583004 0.026503
v 0.047427 0.583004 0.012457
v 0.048955 0.583004 -0.002809
v 0.045691 0.583004 -0.017800
v 0.037954 0.583004 -0.031048
v 0.026502 0.583004 -0.041257
v 0.012456 0.583004 -0.047428
v -0.002810 0.583004 -0.048956
v -0.017801 0.583004 -0.045692
v -0.040199 0.590750 -0.049141
v -0.053417 0.590750 -0.034314
v -0.061406 0.590750 -0.016128
v -0.063385 0.590750 0.003637
v -0.059159 0.590750 0.023045
v -0.049142 0.590750 0.040198
v -0.034315 0.590750 0.053415
v -0.016129 0.590750 0.061405
v 0.003636 0.590750 0.063383
v 0.023044 0.590750 0.059157
v 0.040197 0.590750 0.049140
v 0.053415 0.590750 0.034314
v 0.061404 0.590750 0.016127
v 0.063382 0.590750 -0.003637
v 0.059157 0.590750 -0.023046
v 0.049140 0.590750 -0.040198
v 0.034313 0.590750 -0.053416
v 0.016127 0.590750 -0.061406
v -0.003638 0.590750 -0.063384
v -0.023046 0.590750 -0.059158
v -0.048359 0.602538 -0.059117
v -0.064261 0.602538 -0.041280
v -0.073872 0.602538 -0.019402
v -0.076252 0.602538 0.004375
v -0.071168 0.602538 0.027723
v -0.059118 0.602538 0.048358
v -0.041281 0.602538 0.064259
v -0.019403 0.602538 0.073870
v 0.004374 0.602538 0.076250
v 0.027723 0.602538 0.071166
v 0.048357 0.602538 0.059116
v 0.064258 0.602538 0.041279
v 0.073869 0.602538 0.019402
v 0.076249 0.602538 -0.004375
v 0.071165 0.602538 -0.027724
v 0.059115 0.602538 -0.048359
v 0.041278 0.602538 -0.064260
v 0.019401 0.602538 -0.073871
v -0.004376 0.602538 -0.076251
v -0.027725 0.602538 -0.071167
v -0.055329 0.616340 -0.067637
v -0.073522 0.616340 -0.047229
v -0.084518 0.616340 -0.022199
v -0.087241 0.616340 0.005005
v -0.081425 0.616340 0.031719
v -0.067638 0.616340 0.055327
v -0.047230 0.616340 0.073520
v -0.022199 0.616340 0.084517
v 0.005004 0.616340 0.087239
v 0.031718 0.616340 0.081423
v 0.055327 0.616340 0.067636
v 0.073520 0.616340 0.047229
v 0.084516 0.616340 0.022198
v 0.087239 0.616340 -0.005006
v 0.081422 0.616340 -0.031719
v 0.067635 0.616340 -0.055328
v 0.047228 0.616340 -0.073521
v 0.022197 0.616340 -0.084517
v -0.005006 0.616340 -0.087240
v -0.031720 0.616340 -0.081424
v -0.060936 0.631816 -0.074492
v -0.080973 0.631816 -0.052016
v -0.093084 0.631816 -0.024448
v -0.096083 0.631816 0.005512
v -0.089676 0.631816 0.034933
v -0.074492 0.631816 0.060935
v -0.052017 0.631816 0.080971
v -0.024449 0.631816 0.093082
v 0.005512 0.631816 0.096081
v 0.034933 0.631816 0.089675
v 0.060934 0.631816 0.074491
v 0.080971 0.631816 0.052015
v 0.093081 0.631816 0.024447
v 0.096080 0.631816 -0.005513
v 0.089674 0.631816 -0.034934
v 0.074490 0.631816 -0.060935
v 0.052014 0.631816 -0.080972
v 0.024447 0.631816 -0.093082
v -0.005514 0.631816 -0.096082
v -0.034934 0.631816 -0.089676
v -0.065043 0.648585 -0.079512
v -0.086430 0.648585 -0.055521
v -0.099357 0.648585 -0.026096
v -0.102558 0.648585 0.005884
v -0.095720 0.648585 0.037288
v -0.079512 0.648585 0.065041
v -0.055522 0.648585 0.086428
v -0.026097 0.648585 0.099355
v 0.005883 0.648585 0.102556
v 0.037287 0.648585 0.095719
v 0.065041 0.648585 0.079511
v 0.086428 0.648585 0.055521
v 0.099354 0.648585 0.026095
v 0.102556 0.648585 -0.005885
v 0.095718 0.648585 -0.037288
v 0.079511 0.648585 -0.065042
v 0.055520 0.648585 -0.086429
v 0.026094 0.648585 -0.099356
v -0.005885 0.648585 -0.102557
v -0.037289 0.648585 -0.095719
v -0.067548 0.666234 -0.082574
v -0.089759 0.666234 -0.057660
v -0.103184 0.666234 -0.027101
v -0.106508 0.666234 0.006110
v -0.099407 0.666234 0.038724
v -0.082575 0.666234 0.067547
v -0.057661 0.666234 0.089757
v -0.027102 0.666234 0.103182
v 0.006110 0.666234 0.106507
v 0.038723 0.666234 0.099405
v 0.067546 0.666234 0.082574
v 0.089757 0.666234 0.057659
v 0.103181 0.666234 0.027100
v 0.106506 0.666234 -0.006111
v 0.099405 0.666234 -0.038725
v 0.082573 0.666234 -0.067547
v 0.057658 0.666234 -0.089758
v 0.027100 0.666234 -0.103183
v -0.006112 0.666234 -0.106507
v -0.038725 0.666234 -0.099406
v -0.068390 0.684329 -0.083604
v -0.090878 0.684329 -0.058378
v -0.104470 0.684329 -0.027439
v -0.107836 0.684329 0.006187
v -0.100646 0.684329 0.039206
v -0.083605 0.684329 0.068389
v -0.058379 0.684329 0.090876
v -0.027440 0.684329 0.104468
v 0.006186 0.684329 0.107834
v 0.039206 0.684329 0.100645
v 0.068388 0.684329 0.083603
v 0.090876 0.684329 0.058378
v 0.104468 0.684329 0.027438
v 0.107834 0.684329 -0.006187
v 0.100644 0.684329 -0.039207
v 0.083602 0.684329 -0.068389
v 0.058377 0.684329 -0.090877
v 0.027438 0.684329 -0.104469
v -0.006188 0.684329 -0.107835
v -0.039208 0.684329 -0.100645
v -0.067548 0.702424 -0.082574
v -0.089759 0.702424 -0.057660
v -0.103184 0.702424 -0.027101
v -0.106508 0.702424 0.006110
v -0.099407 0.702424 0.038724
v -0.082575 0.702424 0.067547
v -0.057661 0.702424 0.089757
v -0.027102 0.702424 0.103182
v 0.006110 0.702424 0.106507
v 0.038723 0.702424 0.099405
v 0.067546 0.702424 0.082574
v 0.089757 0.702424 0.057659
v 0.103181 0.702424 0.027100
v 0.106506 0.702424 -0.006111
v 0.099405 0.702424 -0.038725
v 0.082573 0.702424 -0.067547
v 0.057658 0.702424 -0.089758
v 0.027100 0.702424 -0.103183
v -0.006112 0.702424 -0.106507
v -0.038725 0.702424 -0.099406
v -0.065043 0.720073 -0.079512
v -0.086430 0.720073 -0.055521
v -0.099357 0.720073 -0.026096
v -0.102558 0.720073 0.005884
v -0.095720 0.720073 0.037288
v -0.079512 0.720073 0.065041
v -0.055522 0.720073 0.086428
v -0.026097 0.720073 0.099355
v 0.005883 0.720073 0.102556
v 0.037287 0.720073 0.095719
v 0.065041 0.720073 0.079511
v 0.086428 0.720073 0.055521
v 0.099354 0.720073 0.026095
v 0.102556 0.720073 -0.005885
v 0.095718 0.720073 -0.037288
v 0.079511 0.720073 -0.065042
v 0.055520 0.720073 -0.086429
v 0.026094 0.720073 -0.099356
v -0.005885 0.720073 -0.102557
v -0.037289 0.720073 -0.095719
v -0.060936 0.736843 -0.074492
v -0.080973 0.736843 -0.052016
v -0.093084 0.736843 -0.024448
v -0.096083 0.736843 0.005512
v -0.089676 0.736843 0.034933
v -0.074492 0.736843 0.060935
v -0.052017 0.736843 0.080971
v -0.024449 0.736843 0.093082
v 0.005512 0.736843 0.096081
v 0.034933 0.736843 0.089675
v 0.060934 0.736843 0.074491
v 0.080971 0.736843 0.052015
v 0.093081 0.736843 0.024447
v 0.096080 0.736843 -0.005513
v 0.089674 0.736843 -0.034934
v 0.074490 0.736843 -0.060935
v 0.052014 0.736843 -0.080972
v 0.024447 0.736843 -0.093082
v -0.005514 0.736843 -0.096082
v -0.034934 0.736843 -0.089676
v -0.055329 0.752319 -0.067637
v -0.073522 0.752319 -0.047229
v -0.084518 0.752319 -0.022199
v -0.087241 0.752319 0.005005
v -0.081425 0.752319 0.031719
v -0.067638 0.752319 0.055327
v -0.047230 0.752319 0.073520
v -0.022199 0.752319 0.084517
v 0.005004 0.752319 0.087239
v 0.031718 0.752319 0.081423
v 0.055327 0.752319 0.067636
v 0.073520 0.752319 0.047229
v 0.084516 0.752319 0.022198
v 0.087239 0.752319 -0.005006
v 0.081422 0.752319 -0.031719
v 0.067635 0.752319 -0.055328
v 0.047228 0.752319 -0.073521
v 0.022197 0.752319 -0.084517
v -0.005006 0.752319 -0.087240
v -0.031720 0.752319 -0.081424
v -0.048359 0.766121 -0.059117
v -0.064261 0.766121 -0.041280
v -0.073872 0.766121 -0.019402
v -0.076252 0.766121 0.004375
v -0.071168 0.766121 0.027723
v -0.059118 0.766121 0.048358
v -0.041281 0.766121 0.064259
v -0.019403 0.766121 0.073870
v 0.004374 0.766121 0.076250
v 0.027723 0.766121 0.071166
v 0.048357 0.766121 0.059116
v 0.064258 0.766121 0.041279
v 0.073869 0.766121 0.019402
v 0.076249 0.766121 -0.004375
v 0.071165 0.766121 -0.027724
v 0.059115 0.766121 -0.048359
v 0.041278 0.766121 -0.064260
v 0.019401 0.766121 -0.073871
v -0.004376 0.766121 -0.076251
v -0.027725 0.766121 -0.071167
v -0.040199 0.777909 -0.049141
v -0.053417 0.777909 -0.034314
v -0.061406 0.777909 -0.016128
v -0.063385 0.777909 0.003637
v -0.059159 0.777909 0.023045
v -0.049142 0.777909 0.040198
v -0.034315 0.777909 0.053415
v -0.016129 0.777909 0.061405
v 0.003636 0.777909 0.063383
v 0.023044 0.777909 0.059157
v 0.040197 0.777909 0.049140
v 0.053415 0.777909 0.034314
v 0.061404 0.777909 0.016127
v 0.063382 0.777909 -0.003637
v 0.059157 0.777909 -0.023046
v 0.049140 0.777909 -0.040198
v 0.034313 0.777909 -0.053416
v 0.016127 0.777909 -0.061406
v -0.003638 0.777909 -0.063384
v -0.023046 0.777909 -0.059158
v -0.031049 0.787393 -0.037956
v -0.041258 0.787393 -0.026504
v -0.047429 0.787393 -0.012457
v -0.048957 0.787393 0.002809
v -0.045693 0.787393 0.017799
v -0.037956 0.787393 0.031048
v -0.026504 0.787393 0.041257
v -0.012458 0.787393 0.047427
v 0.002808 0.787393 0.048956
v 0.017799 0.787393 0.045691
v 0.031047 0.787393 0.037955
v 0.041256 0.787393 0.026503
v 0.047427 0.787393 0.012457
v 0.048955 0.787393 -0.002809
v 0.045691 0.787393 -0.017800
v 0.037954 0.787393 -0.031048
v 0.026502 0.787393 -0.041257
v 0.012456 0.787393 -0.047428
v -0.002810 0.787393 -0.048956
v -0.017801 0.787393 -0.045692
v -0.021134 0.794339 -0.025835
v -0.028083 0.794339 -0.018040
v -0.032284 0.794339 -0.008479
v -0.033324 0.794339 0.001912
v -0.031102 0.794339 0.012115
v -0.025836 0.794339 0.021133
v -0.018041 0.794339 0.028082
v -0.008480 0.794339 0.032282
v 0.001911 0.794339 0.033322
v 0.012115 0.794339 0.031101
v 0.021132 0.794339 0.025834
v 0.028081 0.794339 0.018040
v 0.032282 0.794339 0.008479
v 0.033322 0.794339 -0.001912
v 0.031100 0.794339 -0.012116
v 0.025834 0.794339 -0.021134
v 0.018039 0.794339 -0.028083
v 0.008478 0.794339 -0.032283
v -0.001913 0.794339 -0.033323
v -0.012117 0.794339 -0.031101
v -0.010700 0.798576 -0.013079
v -0.014217 0.798576 -0.009133
v -0.016344 0.798576 -0.004293
v -0.016870 0.798576 0.000967
v -0.015746 0.798576 0.006133
v -0.013080 0.798576 0.010698
v -0.009134 0.798576 0.014216
v -0.004293 0.798576 0.016342
v 0.000967 0.798576 0.016869
v 0.006132 0.798576 0.015744
v 0.010697 0.798576 0.013078
v 0.014215 0.798576 0.009132
v 0.016341 0.798576 0.004292
v 0.016868 0.798576 -0.000968
v 0.015743 0.798576 -0.006134
v 0.013077 0.798576 -0.010699
v 0.009131 0.798576 -0.014217
v 0.004291 0.798576 -0.016343
v -0.000969 0.798576 -0.016870
v -0.006134 0.798576 -0.015745
v -0.000001 0.800000 -0.000000
v -0.041258 0.576613 -0.026504
v -0.031049 0.576613 -0.037956
v -0.047429 0.576613 -0.012457
v -0.048957 0.576613 0.002809
v -0.045693 0.576613 0.017799
v -0.037957 0.576613 0.031048
v -0.026504 0.576613 0.041257
v -0.012458 0.576613 0.047427
v 0.002808 0.576613 0.048956
v 0.017799 0.576613 0.045691
v 0.031047 0.576613 0.037955
v 0.041256 0.576613 0.026503
v 0.047427 0.576613 0.012457
v 0.048955 0.576613 -0.002809
v 0.045691 0.576613 -0.017800
v 0.037954 0.576613 -0.031048
v 0.026502 0.576613 -0.041257
v 0.012456 0.576613 -0.047428
v -0.002810 0.576613 -0.048956
v -0.017801 0.576613 -0.045692
v -0.055632 0.567535 -0.035737
v -0.041866 0.567535 -0.051179
v -0.063953 0.567535 -0.016797
v -0.066013 0.567535 0.003787
v -0.061612 0.567535 0.024000
v -0.051180 0.567535 0.041865
v -0.035738 0.567535 0.055630
v -0.016798 0.567535 0.063951
v 0.003786 0.567535 0.066012
v 0.024000 0.567535 0.061610
v 0.041864 0.567535 0.051178
v 0.055630 0.567535 0.035736
v 0.063950 0.567535 0.016797
v 0.066011 0.567535 -0.003788
v 0.061609 0.567535 -0.024001
v 0.051178 0.567535 -0.041865
v 0.035736 0.567535 -0.055631
v 0.016796 0.567535 -0.063952
v -0.003789 0.567535 -0.066012
v -0.024002 0.567535 -0.061611
v -0.070575 0.555968 -0.045336
v -0.053111 0.555968 -0.064926
v -0.081130 0.555968 -0.021309
v -0.083744 0.555968 0.004804
v -0.078161 0.555968 0.030447
v -0.064927 0.555968 0.053110
v -0.045337 0.555968 0.070573
v -0.021310 0.555968 0.081129
v 0.004803 0.555968 0.083743
v 0.030447 0.555968 0.078159
v 0.053109 0.555968 0.064925
v 0.070573 0.555968 0.045335
v 0.081128 0.555968 0.021308
v 0.083742 0.555968 -0.004805
v 0.078159 0.555968 -0.030448
v 0.064924 0.555968 -0.053110
v 0.045335 0.555968 -0.070574
v 0.021307 0.555968 -0.081129
v -0.004806 0.555968 -0.083743
v -0.030449 0.555968 -0.078160
v -0.096888 0.539143 -0.062240
v -0.097903 0.537147 -0.062892
v -0.098530 0.534966 -0.063294
v -0.098742 0.532692 -0.063430
v -0.072913 0.539143 -0.089133
v -0.073677 0.537147 -0.090067
v -0.074149 0.534966 -0.090643
v -0.074308 0.532692 -0.090838
v -0.111380 0.539143 -0.029254
v -0.112546 0.537147 -0.029560
v -0.113266 0.534966 -0.029749
v -0.113510 0.532692 -0.029813
v -0.114968 0.539143 0.006596
v -0.116172 0.537147 0.006665
v -0.116916 0.534966 0.006708
v -0.117167 0.532692 0.006722
v -0.107303 0.539143 0.041800
v -0.108427 0.537147 0.042238
v -0.109121 0.534966 0.042508
v -0.109355 0.532692 0.042599
v -0.089134 0.539143 0.072912
v -0.090068 0.537147 0.073676
v -0.090644 0.534966 0.074147
v -0.090839 0.532692 0.074307
v -0.062241 0.539143 0.096887
v -0.062892 0.537147 0.097902
v -0.063295 0.534966 0.098528
v -0.063431 0.532692 0.098740
v -0.029254 0.539143 0.111378
v -0.029561 0.537147 0.112544
v -0.029750 0.534966 0.113265
v -0.029814 0.532692 0.113508
v 0.006595 0.539143 0.114966
v 0.006664 0.537147 0.116170
v 0.006707 0.534966 0.116914
v 0.006721 0.532692 0.117166
v 0.041799 0.539143 0.107301
v 0.042237 0.537147 0.108425
v 0.042507 0.534966 0.109119
v 0.042599 0.532692 0.109354
v 0.072911 0.539143 0.089133
v 0.073675 0.537147 0.090066
v 0.074146 0.534966 0.090643
v 0.074306 0.532692 0.090838
v 0.096886 0.539143 0.062239
v 0.097901 0.537147 0.062891
v 0.098528 0.534966 0.063293
v 0.098739 0.532692 0.063430
v 0.111377 0.539143 0.029253
v 0.112544 0.537147 0.029560
v 0.113264 0.534966 0.029748
v 0.113508 0.532692 0.029813
v 0.114966 0.539143 -0.006596
v 0.116170 0.537147 -0.006666
v 0.116914 0.534966 -0.006708
v 0.117165 0.532692 -0.006723
v 0.107300 0.539143 -0.041800
v 0.108424 0.537147 -0.042238
v 0.109118 0.534966 -0.042509
v 0.109353 0.532692 -0.042600
v 0.089132 0.539143 -0.072912
v 0.090066 0.537147 -0.073676
v 0.090642 0.534966 -0.074148
v 0.090837 0.532692 -0.074307
v 0.062239 0.539143 -0.096888
v 0.062890 0.537147 -0.097902
v 0.063293 0.534966 -0.098529
v 0.063429 0.532692 -0.098741
v 0.029252 0.539143 -0.111379
v 0.029559 0.537147 -0.112545
v 0.029748 0.534966 -0.113266
v 0.029812 0.532692 -0.113509
v -0.006597 0.539143 -0.114967
v -0.006666 0.537147 -0.116171
v -0.006709 0.534966 -0.116915
v -0.006723 0.532692 -0.117166
v -0.041801 0.539143 -0.107302
v -0.042239 0.537147 -0.108426
v -0.042509 0.534966 -0.109120
v -0.042601 0.532692 -0.109355
v -0.064993 0.545873 -0.079450
v -0.086363 0.545873 -0.055478
v -0.099280 0.545873 -0.026076
v -0.102478 0.545873 0.005879
v -0.095646 0.545873 0.037259
v -0.079451 0.545873 0.064991
v -0.055479 0.545873 0.086362
v -0.026077 0.545873 0.099278
v 0.005878 0.545873 0.102477
v 0.037258 0.545873 0.095645
v 0.064990 0.545873 0.079450
v 0.086361 0.545873 0.055478
v 0.099277 0.545873 0.026075
v 0.102476 0.545873 -0.005880
v 0.095644 0.545873 -0.037259
v 0.079449 0.545873 -0.064991
v 0.055477 0.545873 -0.086362
v 0.026074 0.545873 -0.099279
v -0.005881 0.545873 -0.102478
v -0.037260 0.545873 -0.095645
v -0.089541 0.515036 -0.057520
v -0.067384 0.515036 -0.082374
v -0.102933 0.515036 -0.027035
v -0.106249 0.515036 0.006096
v -0.099166 0.515036 0.038630
v -0.082375 0.515036 0.067382
v -0.057521 0.515036 0.089539
v -0.027036 0.515036 0.102931
v 0.006095 0.515036 0.106248
v 0.038629 0.515036 0.099164
v 0.067382 0.515036 0.082373
v 0.089538 0.515036 0.057519
v 0.102931 0.515036 0.027035
v 0.106247 0.515036 -0.006096
v 0.099163 0.515036 -0.038630
v 0.082373 0.515036 -0.067383
v 0.057518 0.515036 -0.089540
v 0.027034 0.515036 -0.102932
v -0.006097 0.515036 -0.106249
v -0.038631 0.515036 -0.099165
v -0.098742 0.519714 -0.063430
v -0.098486 0.518745 -0.063266
v -0.097822 0.518159 -0.062839
v -0.074308 0.519714 -0.090838
v -0.074116 0.518745 -0.090604
v -0.073616 0.518159 -0.089992
v -0.113510 0.519714 -0.029814
v -0.113217 0.518745 -0.029736
v -0.112452 0.518159 -0.029535
v -0.117167 0.519714 0.006722
v -0.116864 0.518745 0.006705
v -0.116076 0.518159 0.006659
v -0.109355 0.519714 0.042599
v -0.109073 0.518745 0.042489
v -0.108337 0.518159 0.042202
v -0.090839 0.519714 0.074307
v -0.090604 0.518745 0.074114
v -0.089993 0.518159 0.073614
v -0.063431 0.519714 0.098740
v -0.063267 0.518745 0.098485
v -0.062840 0.518159 0.097820
v -0.029814 0.519714 0.113509
v -0.029737 0.518745 0.113215
v -0.029537 0.518159 0.112451
v 0.006721 0.519714 0.117166
v 0.006704 0.518745 0.116863
v 0.006658 0.518159 0.116074
v 0.042599 0.519714 0.109354
v 0.042488 0.518745 0.109071
v 0.042202 0.518159 0.108335
v 0.074306 0.519714 0.090838
v 0.074114 0.518745 0.090603
v 0.073613 0.518159 0.089991
v 0.098739 0.519714 0.063430
v 0.098484 0.518745 0.063266
v 0.097820 0.518159 0.062839
v 0.113508 0.519714 0.029813
v 0.113214 0.518745 0.029736
v 0.112450 0.518159 0.029535
v 0.117165 0.519714 -0.006723
v 0.116862 0.518745 -0.006705
v 0.116073 0.518159 -0.006660
v 0.109353 0.519714 -0.042600
v 0.109070 0.518745 -0.042489
v 0.108334 0.518159 -0.042203
v 0.090837 0.519714 -0.074307
v 0.090602 0.518745 -0.074115
v 0.089991 0.518159 -0.073615
v 0.063429 0.519714 -0.098741
v 0.063265 0.518745 -0.098486
v 0.062838 0.518159 -0.097821
v 0.029812 0.519714 -0.113509
v 0.029735 0.518745 -0.113216
v 0.029534 0.518159 -0.112452
v -0.006723 0.519714 -0.117166
v -0.006706 0.518745 -0.116863
v -0.006661 0.518159 -0.116075
v -0.042601 0.519714 -0.109355
v -0.042490 0.518745 -0.109072
v -0.042204 0.518159 -0.108336
v -0.052737 0.514683 -0.033878
v -0.039688 0.514683 -0.048516
v -0.060625 0.514683 -0.015923
v -0.062578 0.514683 0.003590
v -0.058406 0.514683 0.022751
v -0.048517 0.514683 0.039686
v -0.033878 0.514683 0.052736
v -0.015924 0.514683 0.060623
v 0.003589 0.514683 0.062576
v 0.022751 0.514683 0.058404
v 0.039685 0.514683 0.048515
v 0.052735 0.514683 0.033877
v 0.060622 0.514683 0.015922
v 0.062575 0.514683 -0.003591
v 0.058403 0.514683 -0.022752
v 0.048514 0.514683 -0.039687
v 0.033876 0.514683 -0.052737
v 0.015922 0.514683 -0.060624
v -0.003592 0.514683 -0.062577
v -0.022753 0.514683 -0.058405
v -0.051660 0.503469 -0.033185
v -0.038876 0.503469 -0.047524
v -0.059386 0.503469 -0.015598
v -0.061299 0.503469 0.003517
v -0.057212 0.503469 0.022287
v -0.047525 0.503469 0.038875
v -0.033186 0.503469 0.051658
v -0.015598 0.503469 0.059384
v 0.003516 0.503469 0.061298
v 0.022286 0.503469 0.057211
v 0.038874 0.503469 0.047524
v 0.051657 0.503469 0.033184
v 0.059384 0.503469 0.015597
v 0.061297 0.503469 -0.003517
v 0.057210 0.503469 -0.022287
v 0.047523 0.503469 -0.038876
v 0.033184 0.503469 -0.051659
v 0.015596 0.503469 -0.059385
v -0.003518 0.503469 -0.061298
v -0.022288 0.503469 -0.057212
v -0.050108 0.485791 -0.032189
v -0.037709 0.485791 -0.046097
v -0.057602 0.485791 -0.015129
v -0.059458 0.485791 0.003411
v -0.055494 0.485791 0.021617
v -0.046098 0.485791 0.037707
v -0.032189 0.485791 0.050106
v -0.015130 0.485791 0.057601
v 0.003410 0.485791 0.059457
v 0.021617 0.485791 0.055493
v 0.037707 0.485791 0.046096
v 0.050106 0.485791 0.032188
v 0.057600 0.485791 0.015128
v 0.059456 0.485791 -0.003412
v 0.055492 0.485791 -0.021618
v 0.046095 0.485791 -0.037708
v 0.032187 0.485791 -0.050107
v 0.015128 0.485791 -0.057602
v -0.003413 0.485791 -0.059457
v -0.021619 0.485791 -0.055493
v -0.049192 0.469964 -0.031600
v -0.037019 0.469964 -0.045254
v -0.056549 0.469964 -0.014853
v -0.058371 0.469964 0.003349
v -0.054479 0.469964 0.021222
v -0.045255 0.469964 0.037018
v -0.031601 0.469964 0.049190
v -0.014853 0.469964 0.056547
v 0.003348 0.469964 0.058369
v 0.021221 0.469964 0.054478
v 0.037017 0.469964 0.045253
v 0.049190 0.469964 0.031599
v 0.056547 0.469964 0.014852
v 0.058369 0.469964 -0.003349
v 0.054477 0.469964 -0.021222
v 0.045252 0.469964 -0.037018
v 0.031598 0.469964 -0.049191
v 0.014851 0.469964 -0.056548
v -0.003350 0.469964 -0.058370
v -0.021223 0.469964 -0.054478
v -0.050041 0.415336 -0.032146
v -0.037659 0.415336 -0.046036
v -0.057525 0.415336 -0.015109
v -0.059379 0.415336 0.003406
v -0.055420 0.415336 0.021589
v -0.046036 0.415336 0.037657
v -0.032147 0.415336 0.050040
v -0.015110 0.415336 0.057524
v 0.003406 0.415336 0.059378
v 0.021588 0.415336 0.055419
v 0.037656 0.415336 0.046035
v 0.050039 0.415336 0.032145
v 0.057523 0.415336 0.015108
v 0.059377 0.415336 -0.003407
v 0.055418 0.415336 -0.021589
v 0.046034 0.415336 -0.037658
v 0.032144 0.415336 -0.050040
v 0.015108 0.415336 -0.057525
v -0.003408 0.415336 -0.059378
v -0.021590 0.415336 -0.055419
v -0.069300 0.331391 -0.044517
v -0.052151 0.331391 -0.063753
v -0.079664 0.331391 -0.020924
v -0.082231 0.331391 0.004717
v -0.076749 0.331391 0.029897
v -0.063754 0.331391 0.052150
v -0.044518 0.331391 0.069298
v -0.020925 0.331391 0.079662
v 0.004717 0.331391 0.082229
v 0.029896 0.331391 0.076747
v 0.052149 0.331391 0.063752
v 0.069297 0.331391 0.044516
v 0.079662 0.331391 0.020923
v 0.082229 0.331391 -0.004718
v 0.076747 0.331391 -0.029897
v 0.063750 0.331390 -0.052150
v 0.044516 0.331391 -0.069299
v 0.020923 0.331391 -0.079664
v -0.004719 0.331391 -0.082230
v -0.029898 0.331391 -0.076748
v -0.087702 0.290334 -0.056339
v -0.066000 0.290334 -0.080682
v -0.100818 0.290334 -0.026480
v -0.104067 0.290334 0.005970
v -0.097130 0.290334 0.037836
v -0.080683 0.290334 0.065999
v -0.056339 0.290334 0.087700
v -0.026481 0.290334 0.100817
v 0.005969 0.290334 0.104066
v 0.037835 0.290334 0.097127
v 0.065997 0.290334 0.080681
v 0.087700 0.290334 0.056338
v 0.100816 0.290334 0.026480
v 0.104066 0.290334 -0.005971
v 0.097127 0.290334 -0.037837
v 0.080680 0.290334 -0.065999
v 0.056337 0.290334 -0.087701
v 0.026479 0.290334 -0.100818
v -0.005971 0.290334 -0.104066
v -0.037837 0.290334 -0.097128
v -0.047961 0.452574 -0.030809
v -0.036093 0.452574 -0.044121
v -0.020692 0.452574 -0.053115
v -0.003266 0.452574 -0.056909
v 0.014479 0.452574 -0.055133
v 0.030807 0.452574 -0.047960
v 0.044120 0.452574 -0.036092
v 0.053113 0.452574 -0.020691
v 0.056908 0.452574 -0.003265
v 0.055131 0.452574 0.014480
v 0.047958 0.452574 0.030808
v 0.036090 0.452574 0.044120
v 0.020690 0.452574 0.053114
v 0.003264 0.452574 0.056908
v -0.014482 0.452574 0.055132
v -0.030810 0.452574 0.047959
v -0.044122 0.452574 0.036091
v -0.053116 0.452574 0.020691
v -0.056910 0.452574 0.003265
v -0.055133 0.452574 -0.014481
v -0.048913 0.435223 -0.031421
v -0.056228 0.435223 -0.014768
v -0.058039 0.435223 0.003330
v -0.054170 0.435223 0.021102
v -0.044998 0.435223 0.036808
v -0.031421 0.435223 0.048911
v -0.014769 0.435223 0.056226
v 0.003329 0.435223 0.058038
v 0.021101 0.435223 0.054168
v 0.036807 0.435223 0.044997
v 0.048910 0.435223 0.031420
v 0.056226 0.435223 0.014768
v 0.058037 0.435223 -0.003330
v 0.054168 0.435223 -0.021102
v 0.044996 0.435223 -0.036808
v 0.031419 0.435223 -0.048912
v 0.014767 0.435223 -0.056227
v -0.003331 0.435223 -0.058038
v -0.021103 0.435223 -0.054169
v -0.036809 0.435223 -0.044997
v -0.051824 0.394194 -0.033291
v -0.039000 0.394194 -0.047676
v -0.022359 0.394194 -0.057393
v -0.003529 0.394194 -0.061494
v 0.015646 0.394194 -0.059574
v 0.033289 0.394194 -0.051823
v 0.047674 0.394194 -0.038999
v 0.057393 0.394194 -0.022358
v 0.061492 0.394194 -0.003529
v 0.059573 0.394194 0.015647
v 0.051822 0.394194 0.033290
v 0.038998 0.394194 0.047675
v 0.022357 0.394194 0.057393
v 0.003527 0.394194 0.061493
v -0.015648 0.394194 0.059573
v -0.033292 0.394194 0.051822
v -0.047677 0.394194 0.038999
v -0.057395 0.394194 0.022358
v -0.061494 0.394194 0.003528
v -0.059574 0.394194 -0.015648
v -0.056417 0.374664 -0.036241
v -0.064854 0.374664 -0.017034
v -0.066944 0.374664 0.003840
v -0.062481 0.374665 0.024339
v -0.051902 0.374665 0.042455
v -0.036242 0.374664 0.056415
v -0.017035 0.374664 0.064852
v 0.003839 0.374664 0.066942
v 0.024338 0.374664 0.062479
v 0.042454 0.374664 0.051900
v 0.056414 0.374664 0.036240
v 0.064852 0.374665 0.017033
v 0.066942 0.374665 -0.003841
v 0.062479 0.374664 -0.024339
v 0.051899 0.374664 -0.042455
v 0.036239 0.374664 -0.056415
v 0.017033 0.374664 -0.064854
v -0.003842 0.374664 -0.066943
v -0.024340 0.374664 -0.062480
v -0.042456 0.374664 -0.051901
v -0.062448 0.351465 -0.040116
v -0.071787 0.351465 -0.018855
v -0.074101 0.351465 0.004251
v -0.069161 0.351465 0.026941
v -0.057451 0.351465 0.046994
v -0.040117 0.351465 0.062446
v -0.018856 0.351465 0.071786
v 0.004250 0.351465 0.074099
v 0.026940 0.351465 0.069159
v 0.046993 0.351465 0.057449
v 0.062446 0.351465 0.040115
v 0.071786 0.351465 0.018855
v 0.074099 0.351465 -0.004252
v 0.069159 0.351465 -0.026941
v 0.057447 0.351465 -0.046994
v 0.040114 0.351465 -0.062447
v 0.018854 0.351465 -0.071787
v -0.004252 0.351465 -0.074100
v -0.026942 0.351465 -0.069159
v -0.046995 0.351465 -0.057450
v -0.106104 0.268357 -0.068160
v -0.079848 0.268357 -0.097612
v -0.121972 0.268357 -0.032037
v -0.125903 0.268357 0.007222
v -0.117510 0.268357 0.045775
v -0.097613 0.268357 0.079848
v -0.068161 0.268357 0.106102
v -0.032037 0.268357 0.121971
v 0.007222 0.268357 0.125902
v 0.045774 0.268357 0.117507
v 0.079845 0.268357 0.097611
v 0.106101 0.268357 0.068159
v 0.121971 0.268357 0.032036
v 0.125902 0.268357 -0.007223
v 0.117507 0.268357 -0.045777
v 0.097609 0.268356 -0.079847
v 0.068159 0.268357 -0.106102
v 0.032035 0.268357 -0.121972
v -0.007224 0.268357 -0.125902
v -0.045776 0.268357 -0.117508
v -0.104264 0.241752 -0.066978
v -0.078463 0.241752 -0.095919
v -0.119857 0.241752 -0.031481
v -0.123719 0.241752 0.007097
v -0.115472 0.241753 0.044981
v -0.095920 0.241753 0.078462
v -0.066979 0.241752 0.104262
v -0.031482 0.241752 0.119856
v 0.007096 0.241752 0.123718
v 0.044981 0.241752 0.115470
v 0.078461 0.241752 0.095918
v 0.104262 0.241752 0.066977
v 0.119856 0.241753 0.031481
v 0.123718 0.241753 -0.007098
v 0.115469 0.241752 -0.044983
v 0.095916 0.241752 -0.078462
v 0.066977 0.241752 -0.104262
v 0.031480 0.241752 -0.119857
v -0.007099 0.241752 -0.123719
v -0.044982 0.241752 -0.115470
v -0.137850 0.185074 -0.088553
v -0.103738 0.185074 -0.126818
v -0.059472 0.185074 -0.152667
v -0.009386 0.185074 -0.163572
v 0.041620 0.185074 -0.158467
v 0.088553 0.185074 -0.137848
v 0.126814 0.185074 -0.103737
v 0.152666 0.185074 -0.059474
v 0.163573 0.185075 -0.009384
v 0.158465 0.185075 0.041622
v 0.137848 0.185074 0.088553
v 0.103736 0.185074 0.126817
v 0.059471 0.185074 0.152666
v 0.009383 0.185074 0.163572
v -0.041623 0.185074 0.158466
v -0.088554 0.185074 0.137849
v -0.126818 0.185075 0.103738
v -0.152669 0.185075 0.059471
v -0.163573 0.185074 0.009382
v -0.158467 0.185074 -0.041622
v -0.127938 0.196410 -0.082186
v -0.096279 0.196410 -0.117699
v -0.055196 0.196410 -0.141689
v -0.008711 0.196410 -0.151810
v 0.038628 0.196410 -0.147072
v 0.082186 0.196410 -0.127936
v 0.117695 0.196409 -0.096278
v 0.141688 0.196410 -0.055197
v 0.151811 0.196410 -0.008710
v 0.147070 0.196410 0.038629
v 0.127936 0.196410 0.082186
v 0.096277 0.196410 0.117698
v 0.055194 0.196410 0.141689
v 0.008708 0.196410 0.151810
v -0.038630 0.196410 0.147071
v -0.082187 0.196410 0.127936
v -0.117699 0.196410 0.096279
v -0.141691 0.196410 0.055195
v -0.151812 0.196410 0.008708
v -0.147072 0.196410 -0.038629
v -0.119783 0.205478 -0.076947
v -0.090142 0.205478 -0.110196
v -0.051677 0.205478 -0.132657
v -0.008156 0.205478 -0.142133
v 0.036165 0.205478 -0.137697
v 0.076946 0.205478 -0.119781
v 0.110192 0.205478 -0.090141
v 0.132656 0.205478 -0.051679
v 0.142133 0.205479 -0.008154
v 0.137695 0.205479 0.036167
v 0.119780 0.205478 0.076947
v 0.090140 0.205478 0.110195
v 0.051676 0.205478 0.132657
v 0.008153 0.205478 0.142133
v -0.036168 0.205478 0.137696
v -0.076948 0.205479 0.119781
v -0.110197 0.205479 0.090142
v -0.132659 0.205479 0.051676
v -0.142134 0.205479 0.008153
v -0.137697 0.205478 -0.036167
v -0.112893 0.216360 -0.072521
v -0.084957 0.216361 -0.103858
v -0.048705 0.216361 -0.125027
v -0.007687 0.216360 -0.133958
v 0.034085 0.216361 -0.129777
v 0.072520 0.216360 -0.112891
v 0.103854 0.216360 -0.084956
v 0.125026 0.216360 -0.048706
v 0.133958 0.216361 -0.007686
v 0.129775 0.216361 0.034086
v 0.112891 0.216361 0.072521
v 0.084955 0.216361 0.103857
v 0.048703 0.216361 0.125026
v 0.007684 0.216361 0.133958
v -0.034087 0.216361 0.129776
v -0.072522 0.216361 0.112891
v -0.103859 0.216361 0.084957
v -0.125029 0.216361 0.048704
v -0.133959 0.216361 0.007684
v -0.129777 0.216360 -0.034087
v -0.106872 0.229056 -0.068653
v -0.080425 0.229056 -0.098318
v -0.046107 0.229056 -0.118358
v -0.007277 0.229056 -0.126812
v 0.032267 0.229056 -0.122855
v 0.068652 0.229056 -0.106869
v 0.098314 0.229056 -0.080425
v 0.118357 0.229056 -0.046108
v 0.126812 0.229057 -0.007276
v 0.122853 0.229057 0.032268
v 0.106869 0.229057 0.068652
v 0.080423 0.229056 0.098317
v 0.046105 0.229056 0.118357
v 0.007274 0.229056 0.126812
v -0.032269 0.229056 0.122854
v -0.068654 0.229057 0.106870
v -0.098319 0.229057 0.080425
v -0.118360 0.229057 0.046106
v -0.126814 0.229057 0.007274
v -0.122855 0.229056 -0.032268
v -0.148613 0.172929 -0.095467
v -0.170839 0.172929 -0.044871
v -0.176344 0.172929 0.010114
v -0.164589 0.172930 0.064114
v -0.136720 0.172930 0.111838
v -0.095468 0.172929 0.148611
v -0.044872 0.172929 0.170838
v 0.010115 0.172929 0.176343
v 0.064113 0.172929 0.164586
v 0.111836 0.172929 0.136718
v 0.148610 0.172929 0.095467
v 0.170837 0.172929 0.044872
v 0.176344 0.172930 -0.010117
v 0.164585 0.172929 -0.064117
v 0.136714 0.172929 -0.111837
v 0.095467 0.172929 -0.148610
v 0.044870 0.172929 -0.170839
v -0.010118 0.172929 -0.176343
v -0.064115 0.172929 -0.164586
v -0.111838 0.172929 -0.136719
v -0.103895 0.278120 -0.066741
v -0.105513 0.276033 -0.067780
v -0.106104 0.273215 -0.068160
v -0.078186 0.278120 -0.095580
v -0.079403 0.276033 -0.097068
v -0.079848 0.273215 -0.097612
v -0.119433 0.278120 -0.031370
v -0.121293 0.276033 -0.031858
v -0.121972 0.273215 -0.032037
v -0.123281 0.278120 0.007072
v -0.125202 0.276033 0.007182
v -0.125903 0.273215 0.007222
v -0.115063 0.278120 0.044822
v -0.116855 0.276033 0.045520
v -0.117510 0.273215 0.045775
v -0.095580 0.278120 0.078185
v -0.097069 0.276033 0.079403
v -0.097612 0.273216 0.079847
v -0.066742 0.278120 0.103893
v -0.067781 0.276033 0.105511
v -0.068161 0.273215 0.106102
v -0.031370 0.278120 0.119432
v -0.031859 0.276033 0.121292
v -0.032037 0.273215 0.121971
v 0.007072 0.278120 0.123280
v 0.007182 0.276033 0.125200
v 0.007222 0.273215 0.125902
v 0.044821 0.278120 0.115061
v 0.045519 0.276033 0.116853
v 0.045774 0.273215 0.117507
v 0.078183 0.278120 0.095578
v 0.079401 0.276033 0.097067
v 0.079845 0.273215 0.097611
v 0.103892 0.278120 0.066741
v 0.105510 0.276033 0.067780
v 0.106101 0.273215 0.068159
v 0.119431 0.278120 0.031369
v 0.121291 0.276033 0.031858
v 0.121970 0.273215 0.032036
v 0.123281 0.278120 -0.007073
v 0.125200 0.276033 -0.007183
v 0.125902 0.273216 -0.007223
v 0.115061 0.278120 -0.044823
v 0.116852 0.276033 -0.045522
v 0.117507 0.273215 -0.045777
v 0.095576 0.278120 -0.078185
v 0.097065 0.276033 -0.079402
v 0.097609 0.273215 -0.079847
v 0.066740 0.278120 -0.103893
v 0.067779 0.276033 -0.105511
v 0.068159 0.273215 -0.106102
v 0.031368 0.278120 -0.119433
v 0.031857 0.276033 -0.121293
v 0.032035 0.273215 -0.121972
v -0.007074 0.278120 -0.123281
v -0.007184 0.276033 -0.125201
v -0.007224 0.273215 -0.125902
v -0.044823 0.278120 -0.115061
v -0.045521 0.276033 -0.116853
v -0.045776 0.273215 -0.117508
v -0.069384 0.283873 -0.084820
v -0.092199 0.283873 -0.059228
v -0.105988 0.283873 -0.027838
v -0.109403 0.283873 0.006276
v -0.102110 0.283873 0.039776
v -0.084821 0.283873 0.069383
v -0.059228 0.283873 0.092198
v -0.027839 0.283873 0.105987
v 0.006275 0.283873 0.109402
v 0.039776 0.283873 0.102108
v 0.069382 0.283873 0.084819
v 0.092197 0.283873 0.059227
v 0.105986 0.283873 0.027838
v 0.109402 0.283873 -0.006277
v 0.102108 0.283873 -0.039778
v 0.084817 0.283873 -0.069383
v 0.059226 0.283873 -0.092198
v 0.027837 0.283873 -0.105988
v -0.006278 0.283873 -0.109403
v -0.039777 0.283873 -0.102109
v -0.150928 0.101791 -0.096954
v -0.113580 0.101791 -0.138849
v -0.173500 0.101791 -0.045571
v -0.179092 0.101792 0.010272
v -0.167153 0.101792 0.065113
v -0.138850 0.101792 0.113580
v -0.096956 0.101792 0.150927
v -0.045571 0.101792 0.173500
v 0.010273 0.101792 0.179090
v 0.065112 0.101792 0.167150
v 0.113578 0.101792 0.138848
v 0.150926 0.101792 0.096954
v 0.173499 0.101792 0.045571
v 0.179091 0.101792 -0.010274
v 0.167149 0.101791 -0.065116
v 0.138844 0.101791 -0.113579
v 0.096954 0.101791 -0.150926
v 0.045569 0.101791 -0.173501
v -0.010276 0.101791 -0.179090
v -0.065114 0.101791 -0.167150
v -0.162318 0.148985 -0.104271
v -0.122151 0.148985 -0.149327
v -0.070028 0.148985 -0.179764
v -0.011052 0.148985 -0.192605
v 0.049008 0.148985 -0.186594
v 0.104271 0.148985 -0.162315
v 0.149322 0.148985 -0.122151
v 0.179763 0.148985 -0.070030
v 0.192606 0.148986 -0.011050
v 0.186592 0.148986 0.049010
v 0.162315 0.148985 0.104271
v 0.122149 0.148985 0.149326
v 0.070026 0.148985 0.179764
v 0.011048 0.148985 0.192606
v -0.049010 0.148985 0.186593
v -0.104272 0.148985 0.162317
v -0.149328 0.148986 0.122151
v -0.179767 0.148986 0.070027
v -0.192606 0.148985 0.011047
v -0.186594 0.148985 -0.049010
v -0.162318 0.138640 -0.104271
v -0.186594 0.138640 -0.049010
v -0.192607 0.138640 0.011047
v -0.179767 0.138641 0.070027
v -0.149328 0.138641 0.122152
v -0.104272 0.138641 0.162317
v -0.049011 0.138640 0.186593
v 0.011048 0.138640 0.192606
v 0.070026 0.138640 0.179764
v 0.122149 0.138640 0.149326
v 0.162315 0.138640 0.104271
v 0.186592 0.138641 0.049010
v 0.192606 0.138641 -0.011050
v 0.179764 0.138640 -0.070030
v 0.149322 0.138640 -0.122151
v 0.104271 0.138640 -0.162315
v 0.049008 0.138640 -0.186594
v -0.011051 0.138640 -0.192606
v -0.070028 0.138640 -0.179764
v -0.122151 0.138640 -0.149327
v -0.162318 0.128220 -0.104271
v -0.186594 0.128220 -0.049010
v -0.192607 0.128220 0.011047
v -0.179767 0.128221 0.070027
v -0.149328 0.128221 0.122152
v -0.104272 0.128220 0.162317
v -0.049011 0.128220 0.186593
v 0.011048 0.128220 0.192606
v 0.070026 0.128220 0.179764
v 0.122149 0.128220 0.149326
v 0.162315 0.128220 0.104271
v 0.186592 0.128220 0.049010
v 0.192606 0.128221 -0.011050
v 0.179764 0.128220 -0.070030
v 0.149323 0.128219 -0.122151
v 0.104271 0.128220 -0.162315
v 0.049008 0.128220 -0.186594
v -0.011051 0.128220 -0.192606
v -0.070028 0.128220 -0.179765
v -0.122151 0.128220 -0.149327
v -0.159471 0.117649 -0.102442
v -0.183321 0.117649 -0.048150
v -0.189228 0.117649 0.010853
v -0.176614 0.117649 0.068798
v -0.146709 0.117649 0.120009
v -0.102443 0.117649 0.159469
v -0.048151 0.117649 0.183320
v 0.010854 0.117649 0.189227
v 0.068798 0.117649 0.176611
v 0.120006 0.117649 0.146707
v 0.159468 0.117649 0.102442
v 0.183319 0.117649 0.048151
v 0.189228 0.117649 -0.010856
v 0.176610 0.117649 -0.068801
v 0.146703 0.117648 -0.120007
v 0.102442 0.117648 -0.159468
v 0.048149 0.117649 -0.183321
v -0.010858 0.117649 -0.189227
v -0.068799 0.117649 -0.176611
v -0.120008 0.117649 -0.146708
v -0.153893 0.165815 -0.098859
v -0.158550 0.159955 -0.101850
v -0.161464 0.152526 -0.103722
v -0.115811 0.165815 -0.141576
v -0.119315 0.159955 -0.145860
v -0.121508 0.152526 -0.148541
v -0.176909 0.165814 -0.046466
v -0.182262 0.159955 -0.047872
v -0.185611 0.152525 -0.048752
v -0.182609 0.165815 0.010474
v -0.188135 0.159955 0.010791
v -0.191593 0.152526 0.010989
v -0.170437 0.165815 0.066392
v -0.175594 0.159955 0.068401
v -0.178821 0.152526 0.069658
v -0.141577 0.165815 0.115811
v -0.145861 0.159955 0.119316
v -0.148542 0.152526 0.121508
v -0.098860 0.165815 0.153892
v -0.101851 0.159955 0.158548
v -0.103723 0.152526 0.161462
v -0.046466 0.165815 0.176908
v -0.047873 0.159955 0.182261
v -0.048753 0.152526 0.185611
v 0.010475 0.165815 0.182608
v 0.010792 0.159955 0.188134
v 0.010990 0.152526 0.191591
v 0.066392 0.165815 0.170434
v 0.068401 0.159955 0.175591
v 0.069658 0.152526 0.178818
v 0.115809 0.165815 0.141575
v 0.119313 0.159955 0.145859
v 0.121506 0.152526 0.148540
v 0.153890 0.165815 0.098859
v 0.158547 0.159955 0.101850
v 0.161461 0.152526 0.103722
v 0.176907 0.165815 0.046466
v 0.182261 0.159955 0.047872
v 0.185610 0.152526 0.048752
v 0.182609 0.165815 -0.010476
v 0.188135 0.159955 -0.010793
v 0.191592 0.152526 -0.010991
v 0.170433 0.165814 -0.066395
v 0.175590 0.159955 -0.068405
v 0.178817 0.152525 -0.069662
v 0.141572 0.165814 -0.115810
v 0.145856 0.159954 -0.119314
v 0.148536 0.152525 -0.121507
v 0.098859 0.165814 -0.153890
v 0.101851 0.159954 -0.158547
v 0.103722 0.152525 -0.161460
v 0.046464 0.165815 -0.176909
v 0.047871 0.159955 -0.182262
v 0.048750 0.152526 -0.185612
v -0.010478 0.165814 -0.182608
v -0.010795 0.159955 -0.188134
v -0.010993 0.152525 -0.191591
v -0.066393 0.165815 -0.170434
v -0.068402 0.159955 -0.175591
v -0.069659 0.152526 -0.178818
v -0.148168 0.089068 -0.095181
v -0.111503 0.089068 -0.136310
v -0.170328 0.089068 -0.044737
v -0.175817 0.089068 0.010084
v -0.164096 0.089068 0.063922
v -0.136311 0.089068 0.111503
v -0.095183 0.089068 0.148167
v -0.044738 0.089068 0.170327
v 0.010085 0.089068 0.175815
v 0.063922 0.089068 0.164093
v 0.111500 0.089068 0.136309
v 0.148165 0.089068 0.095181
v 0.170326 0.089068 0.044738
v 0.175816 0.089068 -0.010087
v 0.164093 0.089068 -0.063925
v 0.136305 0.089067 -0.111502
v 0.095181 0.089068 -0.148165
v 0.044736 0.089068 -0.170328
v -0.010088 0.089068 -0.175815
v -0.063923 0.089068 -0.164094
v -0.175771 0.065934 -0.112913
v -0.132275 0.065934 -0.161704
v -0.202059 0.065934 -0.053072
v -0.208570 0.065934 0.011963
v -0.194667 0.065935 0.075830
v -0.161705 0.065935 0.132276
v -0.112915 0.065934 0.175770
v -0.053073 0.065934 0.202058
v 0.011964 0.065934 0.208569
v 0.075830 0.065934 0.194663
v 0.132273 0.065934 0.161703
v 0.175768 0.065934 0.112914
v 0.202058 0.065934 0.053073
v 0.208570 0.065935 -0.011965
v 0.194663 0.065934 -0.075835
v 0.161699 0.065933 -0.132274
v 0.112914 0.065934 -0.175768
v 0.053070 0.065934 -0.202059
v -0.011967 0.065934 -0.208569
v -0.075831 0.065934 -0.194664
v -0.175771 0.053210 -0.112913
v -0.132275 0.053210 -0.161704
v -0.202059 0.053210 -0.053072
v -0.208570 0.053210 0.011963
v -0.194667 0.053211 0.075830
v -0.161705 0.053211 0.132276
v -0.112915 0.053210 0.175770
v -0.053073 0.053210 0.202058
v 0.011964 0.053210 0.208569
v 0.075830 0.053210 0.194663
v 0.132273 0.053210 0.161703
v 0.175768 0.053210 0.112914
v 0.202058 0.053211 0.053073
v 0.208570 0.053211 -0.011966
v 0.194663 0.053210 -0.075834
v 0.161699 0.053210 -0.132274
v 0.112914 0.053210 -0.175768
v 0.053070 0.053210 -0.202060
v -0.011967 0.053210 -0.208569
v -0.075831 0.053210 -0.194664
v -0.145523 0.023135 -0.093482
v -0.109512 0.023135 -0.133876
v -0.167287 0.023135 -0.043939
v -0.172678 0.023136 0.009904
v -0.161167 0.023136 0.062781
v -0.133878 0.023136 0.109512
v -0.093484 0.023136 0.145521
v -0.043940 0.023135 0.167286
v 0.009905 0.023135 0.172676
v 0.062780 0.023135 0.161164
v 0.109510 0.023135 0.133875
v 0.145520 0.023136 0.093482
v 0.167285 0.023136 0.043939
v 0.172677 0.023136 -0.009907
v 0.161163 0.023135 -0.062783
v 0.133872 0.023135 -0.109511
v 0.093482 0.023135 -0.145520
v 0.043937 0.023135 -0.167287
v -0.009908 0.023135 -0.172676
v -0.062782 0.023135 -0.161164
v -0.016826 0.000000 -0.020568
v -0.022358 0.000000 -0.014362
v -0.058812 0.000000 -0.037781
v -0.044259 0.000000 -0.054105
v -0.025702 0.000000 -0.006750
v -0.067607 0.000000 -0.017758
v -0.026530 0.000000 0.001522
v -0.069787 0.000000 0.004004
v -0.024761 0.000000 0.009645
v -0.065135 0.000000 0.025374
v -0.020569 0.000000 0.016824
v -0.054108 0.000000 0.044258
v -0.014363 0.000000 0.022357
v -0.037784 0.000000 0.058810
v -0.006751 0.000000 0.025700
v -0.017759 0.000000 0.067607
v 0.001521 0.000000 0.026528
v 0.004002 0.000000 0.069785
v 0.009645 0.000000 0.024759
v 0.025371 0.000000 0.065133
v 0.016823 0.000000 0.020567
v 0.044256 0.000000 0.054105
v 0.022356 0.000000 0.014361
v 0.058810 0.000000 0.037780
v 0.025700 0.000000 0.006750
v 0.067607 0.000000 0.017757
v 0.026527 0.000000 -0.001523
v 0.069787 0.000000 -0.004004
v 0.024759 0.000000 -0.009646
v 0.065134 0.000000 -0.025370
v 0.020566 0.000000 -0.016825
v 0.054103 0.000000 -0.044256
v 0.014360 0.000000 -0.022357
v 0.037777 0.000000 -0.058811
v 0.006749 0.000000 -0.025701
v 0.017757 0.000000 -0.067607
v -0.001524 0.000000 -0.026529
v -0.004004 0.000000 -0.069786
v -0.009646 0.000000 -0.024760
v -0.025373 0.000000 -0.065133
v -0.000001 0.000000 -0.000001
v -0.161788 0.076420 -0.103931
v -0.121753 0.076420 -0.148840
v -0.069799 0.076420 -0.179178
v -0.011015 0.076420 -0.191977
v 0.048848 0.076420 -0.185985
v 0.103931 0.076420 -0.161785
v 0.148835 0.076420 -0.121751
v 0.179177 0.076420 -0.069802
v 0.191978 0.076421 -0.011014
v 0.185984 0.076421 0.048850
v 0.161786 0.076420 0.103931
v 0.121750 0.076420 0.148839
v 0.069798 0.076420 0.179178
v 0.011012 0.076420 0.191977
v -0.048851 0.076420 0.185984
v -0.103932 0.076420 0.161787
v -0.148841 0.076421 0.121753
v -0.179181 0.076421 0.069798
v -0.191978 0.076420 0.011011
v -0.185985 0.076420 -0.048850
v -0.132917 0.004627 -0.085384
v -0.129323 0.001212 -0.083076
v -0.124922 0.000001 -0.080249
v -0.094009 0.000001 -0.114924
v -0.097321 0.001212 -0.118973
v -0.100026 0.004627 -0.122280
v -0.152796 0.004627 -0.040133
v -0.148664 0.001212 -0.039048
v -0.143605 0.000001 -0.037719
v -0.157720 0.004627 0.009047
v -0.153455 0.001212 0.008802
v -0.148233 0.000001 0.008503
v -0.147207 0.004628 0.057344
v -0.143226 0.001213 0.055793
v -0.138352 0.000001 0.053894
v -0.122281 0.004628 0.100026
v -0.118975 0.001213 0.097321
v -0.114926 0.000001 0.094009
v -0.085387 0.004628 0.132916
v -0.083078 0.001212 0.129322
v -0.080251 0.000001 0.124920
v -0.040134 0.004627 0.152795
v -0.039049 0.001212 0.148664
v -0.037720 0.000001 0.143604
v 0.009047 0.004627 0.157719
v 0.008802 0.001212 0.153454
v 0.008502 0.000001 0.148231
v 0.057342 0.004627 0.147204
v 0.055792 0.001212 0.143223
v 0.053893 0.000001 0.138349
v 0.100024 0.004627 0.122279
v 0.097319 0.001212 0.118972
v 0.094007 0.000001 0.114923
v 0.132915 0.004627 0.085384
v 0.129321 0.001212 0.083076
v 0.124920 0.000001 0.080249
v 0.152795 0.004628 0.040133
v 0.148664 0.001213 0.039047
v 0.143604 0.000001 0.037718
v 0.157720 0.004628 -0.009048
v 0.153455 0.001213 -0.008804
v 0.148233 0.000001 -0.008504
v 0.147204 0.004627 -0.057344
v 0.143223 0.001212 -0.055793
v 0.138349 0.000001 -0.053894
v 0.122276 0.004627 -0.100024
v 0.118969 0.001212 -0.097319
v 0.114921 0.000000 -0.094007
v 0.085384 0.004627 -0.132915
v 0.083075 0.001212 -0.129321
v 0.080247 0.000001 -0.124920
v 0.040131 0.004627 -0.152797
v 0.039046 0.001212 -0.148665
v 0.037717 0.000001 -0.143605
v -0.009050 0.004627 -0.157719
v -0.008805 0.001212 -0.153454
v -0.008505 0.000001 -0.148232
v -0.057344 0.004627 -0.147204
v -0.055793 0.001212 -0.143223
v -0.053895 0.000001 -0.138349
v -0.178019 0.063200 -0.114357
v -0.178678 0.061993 -0.114780
v -0.178910 0.060558 -0.114929
v -0.134637 0.060558 -0.164591
v -0.134462 0.061993 -0.164378
v -0.133966 0.063200 -0.163771
v -0.077185 0.060558 -0.198140
v -0.077085 0.061993 -0.197883
v -0.076801 0.063200 -0.197153
v -0.012181 0.060558 -0.212293
v -0.012165 0.061993 -0.212018
v -0.012120 0.063200 -0.211236
v 0.054018 0.060558 -0.205667
v 0.053948 0.061993 -0.205401
v 0.053749 0.063200 -0.204643
v 0.114930 0.060558 -0.178906
v 0.114781 0.061993 -0.178674
v 0.114357 0.063200 -0.178016
v 0.164586 0.060558 -0.134636
v 0.164373 0.061993 -0.134461
v 0.163766 0.063200 -0.133966
v 0.198139 0.060558 -0.077189
v 0.197881 0.061993 -0.077089
v 0.197152 0.063200 -0.076804
v 0.212294 0.060559 -0.012179
v 0.212019 0.061994 -0.012163
v 0.211237 0.063201 -0.012119
v 0.205665 0.060559 0.054020
v 0.205399 0.061994 0.053950
v 0.204641 0.063201 0.053751
v 0.178907 0.060559 0.114930
v 0.178675 0.061993 0.114781
v 0.178016 0.063201 0.114358
v 0.134635 0.060558 0.164590
v 0.134460 0.061993 0.164376
v 0.133964 0.063200 0.163770
v 0.077184 0.060558 0.198139
v 0.077084 0.061993 0.197882
v 0.076800 0.063200 0.197152
v 0.012178 0.060558 0.212293
v 0.012162 0.061993 0.212018
v 0.012117 0.063200 0.211236
v -0.054020 0.060558 0.205666
v -0.053950 0.061993 0.205399
v -0.053751 0.063200 0.204642
v -0.114931 0.060559 0.178908
v -0.114782 0.061993 0.178676
v -0.114358 0.063201 0.178017
v -0.164592 0.060559 0.134638
v -0.164378 0.061994 0.134463
v -0.163772 0.063201 0.133967
v -0.198143 0.060559 0.077184
v -0.197886 0.061994 0.077084
v -0.197156 0.063201 0.076800
v -0.212295 0.060559 0.012176
v -0.212019 0.061993 0.012161
v -0.211237 0.063201 0.012115
v -0.205667 0.060558 -0.054019
v -0.205400 0.061993 -0.053949
v -0.204643 0.063200 -0.053751
v -0.178100 0.056515 -0.114409
v -0.178700 0.057763 -0.114795
v -0.178910 0.059198 -0.114929
v -0.205667 0.059198 -0.054019
v -0.205426 0.057763 -0.053956
v -0.204736 0.056515 -0.053775
v -0.212295 0.059198 0.012176
v -0.212046 0.057763 0.012162
v -0.211334 0.056515 0.012121
v -0.198143 0.059199 0.077184
v -0.197911 0.057764 0.077094
v -0.197246 0.056516 0.076835
v -0.164592 0.059199 0.134638
v -0.164400 0.057764 0.134481
v -0.163847 0.056516 0.134029
v -0.114931 0.059198 0.178908
v -0.114796 0.057764 0.178699
v -0.114411 0.056515 0.178099
v -0.054020 0.059198 0.205666
v -0.053957 0.057763 0.205425
v -0.053776 0.056515 0.204736
v 0.012178 0.059198 0.212293
v 0.012163 0.057763 0.212045
v 0.012122 0.056515 0.211333
v 0.077184 0.059198 0.198139
v 0.077094 0.057763 0.197908
v 0.076835 0.056515 0.197243
v 0.134635 0.059198 0.164590
v 0.134477 0.057763 0.164398
v 0.134025 0.056515 0.163846
v 0.178907 0.059198 0.114930
v 0.178698 0.057763 0.114795
v 0.178097 0.056515 0.114410
v 0.205665 0.059199 0.054020
v 0.205425 0.057764 0.053957
v 0.204735 0.056515 0.053776
v 0.212295 0.059199 -0.012179
v 0.212046 0.057764 -0.012165
v 0.211334 0.056516 -0.012124
v 0.198139 0.059198 -0.077189
v 0.197907 0.057763 -0.077098
v 0.197242 0.056515 -0.076839
v 0.164586 0.059197 -0.134636
v 0.164394 0.057763 -0.134478
v 0.163842 0.056514 -0.134027
v 0.114930 0.059198 -0.178906
v 0.114796 0.057763 -0.178697
v 0.114410 0.056515 -0.178097
v 0.054018 0.059198 -0.205667
v 0.053955 0.057763 -0.205427
v 0.053774 0.056515 -0.204737
v -0.012181 0.059198 -0.212293
v -0.012167 0.057763 -0.212045
v -0.012126 0.056515 -0.211333
v -0.077185 0.059198 -0.198140
v -0.077095 0.057763 -0.197908
v -0.076836 0.056515 -0.197243
v -0.134637 0.059198 -0.164591
v -0.134479 0.057763 -0.164399
v -0.134028 0.056515 -0.163847
v -0.146478 0.098434 -0.094095
v -0.145229 0.096850 -0.093293
v -0.144726 0.094701 -0.092970
v -0.145091 0.092507 -0.093205
v -0.146235 0.090803 -0.093940
v -0.110231 0.098434 -0.134755
v -0.109291 0.096850 -0.133606
v -0.108913 0.094701 -0.133143
v -0.109187 0.092507 -0.133479
v -0.110048 0.090803 -0.134532
v -0.168384 0.098434 -0.044227
v -0.166949 0.096850 -0.043850
v -0.166371 0.094701 -0.043698
v -0.166791 0.092507 -0.043808
v -0.168106 0.090803 -0.044154
v -0.173811 0.098435 0.009969
v -0.172329 0.096851 0.009884
v -0.171732 0.094701 0.009850
v -0.172166 0.092507 0.009875
v -0.173523 0.090803 0.009953
v -0.162224 0.098435 0.063193
v -0.160841 0.096851 0.062654
v -0.160285 0.094701 0.062437
v -0.160689 0.092508 0.062595
v -0.161956 0.090804 0.063088
v -0.134755 0.098435 0.110231
v -0.133607 0.096851 0.109291
v -0.133144 0.094701 0.108913
v -0.133480 0.092508 0.109188
v -0.134533 0.090804 0.110049
v -0.094097 0.098435 0.146476
v -0.093295 0.096851 0.145227
v -0.092972 0.094701 0.144725
v -0.093206 0.092507 0.145090
v -0.093941 0.090803 0.146234
v -0.044228 0.098434 0.168384
v -0.043851 0.096850 0.166948
v -0.043699 0.094701 0.166370
v -0.043810 0.092507 0.166790
v -0.044155 0.090803 0.168105
v 0.009970 0.098434 0.173810
v 0.009885 0.096850 0.172328
v 0.009851 0.094701 0.171731
v 0.009875 0.092507 0.172165
v 0.009953 0.090803 0.173522
v 0.063192 0.098434 0.162221
v 0.062654 0.096850 0.160838
v 0.062437 0.094701 0.160282
v 0.062594 0.092507 0.160686
v 0.063088 0.090803 0.161953
v 0.110229 0.098434 0.134753
v 0.109289 0.096850 0.133605
v 0.108911 0.094701 0.133143
v 0.109185 0.092507 0.133478
v 0.110046 0.090803 0.134531
v 0.146475 0.098435 0.094095
v 0.145226 0.096851 0.093293
v 0.144724 0.094701 0.092970
v 0.145089 0.092507 0.093205
v 0.146233 0.090803 0.093940
v 0.168383 0.098435 0.044227
v 0.166948 0.096851 0.043850
v 0.166370 0.094701 0.043699
v 0.166789 0.092508 0.043809
v 0.168104 0.090804 0.044154
v 0.173810 0.098435 -0.009972
v 0.172329 0.096851 -0.009887
v 0.171732 0.094701 -0.009852
v 0.172165 0.092508 -0.009877
v 0.173523 0.090804 -0.009955
v 0.162221 0.098434 -0.063196
v 0.160838 0.096850 -0.062657
v 0.160281 0.094701 -0.062440
v 0.160685 0.092507 -0.062598
v 0.161952 0.090803 -0.063091
v 0.134750 0.098434 -0.110230
v 0.133602 0.096850 -0.109290
v 0.133139 0.094700 -0.108912
v 0.133475 0.092507 -0.109186
v 0.134528 0.090803 -0.110047
v 0.094095 0.098434 -0.146475
v 0.093293 0.096850 -0.145226
v 0.092970 0.094701 -0.144724
v 0.093205 0.092507 -0.145089
v 0.093940 0.090803 -0.146233
v 0.044226 0.098434 -0.168385
v 0.043848 0.096850 -0.166949
v 0.043697 0.094701 -0.166371
v 0.043807 0.092507 -0.166791
v 0.044152 0.090803 -0.168106
v -0.009973 0.098434 -0.173809
v -0.009888 0.096850 -0.172328
v -0.009854 0.094701 -0.171731
v -0.009878 0.092507 -0.172164
v -0.009957 0.090803 -0.173522
v -0.063194 0.098434 -0.162222
v -0.062655 0.096850 -0.160839
v -0.062438 0.094701 -0.160282
v -0.062596 0.092507 -0.160686
v -0.063090 0.090803 -0.161953
f 1302 1303 1304 1305
f 1303 1306 1307 1304
f 1306 1308 1309 1307
f 1308 1310 1311 1309
f 1310 1312 1313 1311
f 1312 1314 1315 1313
f 1314 1316 1317 1315
f 1316 1318 1319 1317
f 1318 1320 1321 1319
f 1320 1322 1323 1321
f 1322 1324 1325 1323
f 1324 1326 1327 1325
f 1326 1328 1329 1327
f 1328 1330 1331 1329
f 1330 1332 1333 1331
f 1332 1334 1335 1333
f 1334 1336 1337 1335
f 1336 1338 1339 1337
f 1338 1340 1341 1339
f 1340 1302 1305 1341
f 1 2 22 21
f 2 3 23 22
f 3 4 24 23
f 4 5 25 24
f 5 6 26 25
f 6 7 27 26
f 7 8 28 27
f 8 9 29 28
f 9 10 30 29
f 10 11 31 30
f 11 12 32 31
f 12 13 33 32
f 13 14 34 33
f 14 15 35 34
f 15 16 36 35
f 16 17 37 36
f 17 18 38 37
f 18 19 39 38
f 19 20 40 39
f 20 1 21 40
f 21 22 42 41
f 22 23 43 42
f 23 24 44 43
f 24 25 45 44
f 25 26 46 45
f 26 27 47 46
f 27 28 48 47
f 28 29 49 48
f 29 30 50 49
f 30 31 51 50
f 31 32 52 51
f 32 33 53 52
f 33 34 54 53
f 34 35 55 54
f 35 36 56 55
f 36 37 57 56
f 37 38 58 57
f 38 39 59 58
f 39 40 60 59
f 40 21 41 60
f 41 42 62 61
f 42 43 63 62
f 43 44 64 63
f 44 45 65 64
f 45 46 66 65
f 46 47 67 66
f 47 48 68 67
f 48 49 69 68
f 49 50 70 69
f 50 51 71 70
f 51 52 72 71
f 52 53 73 72
f 53 54 74 73
f 54 55 75 74
f 55 56 76 75
f 56 57 77 76
f 57 58 78 77
f 58 59 79 78
f 59 60 80 79
f 60 41 61 80
f 61 62 82 81
f 62 63 83 82
f 63 64 84 83
f 64 65 85 84
f 65 66 86 85
f 66 67 87 86
f 67 68 88 87
f 68 69 89 88
f 69 70 90 89
f 70 71 91 90
f 71 72 92 91
f 72 73 93 92
f 73 74 94 93
f 74 75 95 94
f 75 76 96 95
f 76 77 97 96
f 77 78 98 97
f 78 79 99 98
f 79 80 100 99
f 80 61 81 100
f 81 82 102 101
f 82 83 103 102
f 83 84 104 103
f 84 85 105 104
f 85 86 106 105
f 86 87 107 106
f 87 88 108 107
f 88 89 109 108
f 89 90 110 109
f 90 91 111 110
f 91 92 112 111
f 92 93 113 112
f 93 94 114 113
f 94 95 115 114
f 95 96 116 115
f 96 97 117 116
f 97 98 118 117
f 98 99 119 118
f 99 100 120 119
f 100 81 101 120
f 101 102 122 121
f 102 103 123 122
f 103 104 124 123
f 104 105 125 124
f 105 106 126 125
f 106 107 127 126
f 107 108 128 127
f 108 109 129 128
f 109 110 130 129
f 110 111 131 130
f 111 112 132 131
f 112 113 133 132
f 113 114 134 133
f 114 115 135 134
f 115 116 136 135
f 116 117 137 136
f 117 118 138 137
f 118 119 139 138
f 119 120 140 139
f 120 101 121 140
f 121 122 142 141
f 122 123 143 142
f 123 124 144 143
f 124 125 145 144
f 125 126 146 145
f 126 127 147 146
f 127 128 148 147
f 128 129 149 148
f 129 130 150 149
f 130 131 151 150
f 131 132 152 151
f 132 133 153 152
f 133 134 154 153
f 134 135 155 154
f 135 136 156 155
f 136 137 157 156
f 137 138 158 157
f 138 139 159 158
f 139 140 160 159
f 140 121 141 160
f 141 142 162 161
f 142 143 163 162
f 143 144 164 163
f 144 145 165 164
f 145 146 166 165
f 146 147 167 166
f 147 148 168 167
f 148 149 169 168
f 149 150 170 169
f 150 151 171 170
f 151 152 172 171
f 152 153 173 172
f 153 154 174 173
f 154 155 175 174
f 155 156 176 175
f 156 157 177 176
f 157 158 178 177
f 158 159 179 178
f 159 160 180 179
f 160 141 161 180
f 161 162 182 181
f 162 163 183 182
f 163 164 184 183
f 164 165 185 184
f 165 166 186 185
f 166 167 187 186
f 167 168 188 187
f 168 169 189 188
f 169 170 190 189
f 170 171 191 190
f 171 172 192 191
f 172 173 193 192
f 173 174 194 193
f 174 175 195 194
f 175 176 196 195
f 176 177 197 196
f 177 178 198 197
f 178 179 199 198
f 179 180 200 199
f 180 161 181 200
f 181 182 202 201
f 182 183 203 202
f 183 184 204 203
f 184 185 205 204
f 185 186 206 205
f 186 187 207 206
f 187 188 208 207
f 188 189 209 208
f 189 190 210 209
f 190 191 211 210
f 191 192 212 211
f 192 193 213 212
f 193 194 214 213
f 194 195 215 214
f 195 196 216 215
f 196 197 217 216
f 197 198 218 217
f 198 199 219 218
f 199 200 220 219
f 200 181 201 220
f 201 202 222 221
f 202 203 223 222
f 203 204 224 223
f 204 205 225 224
f 205 206 226 225
f 206 207 227 226
f 207 208 228 227
f 208 209 229 228
f 209 210 230 229
f 210 211 231 230
f 211 212 232 231
f 212 213 233 232
f 213 214 234 233
f 214 215 235 234
f 215 216 236 235
f 216 217 237 236
f 217 218 238 237
f 218 219 239 238
f 219 220 240 239
f 220 201 221 240
f 221 222 242 241
f 222 223 243 242
f 223 224 244 243
f 224 225 245 244
f 225 226 246 245
f 226 227 247 246
f 227 228 248 247
f 228 229 249 248
f 229 230 250 249
f 230 231 251 250
f 231 232 252 251
f 232 233 253 252
f 233 234 254 253
f 234 235 255 254
f 235 236 256 255
f 236 237 257 256
f 237 238 258 257
f 238 239 259 258
f 239 240 260 259
f 240 221 241 260
f 241 242 262 261
f 242 243 263 262
f 243 244 264 263
f 244 245 265 264
f 245 246 266 265
f 246 247 267 266
f 247 248 268 267
f 248 249 269 268
f 249 250 270 269
f 250 251 271 270
f 251 252 272 271
f 252 253 273 272
f 253 254 274 273
f 254 255 275 274
f 255 256 276 275
f 256 257 277 276
f 257 258 278 277
f 258 259 279 278
f 259 260 280 279
f 260 241 261 280
f 261 262 282 281
f 262 263 283 282
f 263 264 284 283
f 264 265 285 284
f 265 266 286 285
f 266 267 287 286
f 267 268 288 287
f 268 269 289 288
f 269 270 290 289
f 270 271 291 290
f 271 272 292 291
f 272 273 293 292
f 273 274 294 293
f 274 275 295 294
f 275 276 296 295
f 276 277 297 296
f 277 278 298 297
f 278 279 299 298
f 279 280 300 299
f 280 261 281 300
f 281 282 302 301
f 282 283 303 302
f 283 284 304 303
f 284 285 305 304
f 285 286 306 305
f 286 287 307 306
f 287 288 308 307
f 288 289 309 308
f 289 290 310 309
f 290 291 311 310
f 291 292 312 311
f 292 293 313 312
f 293 294 314 313
f 294 295 315 314
f 295 296 316 315
f 296 297 317 316
f 297 298 318 317
f 298 299 319 318
f 299 300 320 319
f 300 281 301 320
f 301 302 322 321
f 302 303 323 322
f 303 304 324 323
f 304 305 325 324
f 305 306 326 325
f 306 307 327 326
f 307 308 328 327
f 308 309 329 328
f 309 310 330 329
f 310 311 331 330
f 311 312 332 331
f 312 313 333 332
f 313 314 334 333
f 314 315 335 334
f 315 316 336 335
f 316 317 337 336
f 317 318 338 337
f 318 319 339 338
f 319 320 340 339
f 320 301 321 340
f 1303 1302 1342
f 1306 1303 1342
f 1308 1306 1342
f 1310 1308 1342
f 1312 1310 1342
f 1314 1312 1342
f 1316 1314 1342
f 1318 1316 1342
f 1320 1318 1342
f 1322 1320 1342
f 1324 1322 1342
f 1326 1324 1342
f 1328 1326 1342
f 1330 1328 1342
f 1332 1330 1342
f 1334 1332 1342
f 1336 1334 1342
f 1338 1336 1342
f 1340 1338 1342
f 1302 1340 1342
f 321 322 341
f 322 323 341
f 323 324 341
f 324 325 341
f 325 326 341
f 326 327 341
f 327 328 341
f 328 329 341
f 329 330 341
f 330 331 341
f 331 332 341
f 332 333 341
f 333 334 341
f 334 335 341
f 335 336 341
f 336 337 341
f 337 338 341
f 338 339 341
f 339 340 341
f 340 321 341
f 2 1 343 342
f 3 2 342 344
f 4 3 344 345
f 5 4 345 346
f 6 5 346 347
f 7 6 347 348
f 8 7 348 349
f 9 8 349 350
f 10 9 350 351
f 11 10 351 352
f 12 11 352 353
f 13 12 353 354
f 14 13 354 355
f 15 14 355 356
f 16 15 356 357
f 17 16 357 358
f 18 17 358 359
f 19 18 359 360
f 20 19 360 361
f 1 20 361 343
f 342 343 363 362
f 344 342 362 364
f 345 344 364 365
f 346 345 365 366
f 347 346 366 367
f 348 347 367 368
f 349 348 368 369
f 350 349 369 370
f 351 350 370 371
f 352 351 371 372
f 353 352 372 373
f 354 353 373 374
f 355 354 374 375
f 356 355 375 376
f 357 356 376 377
f 358 357 377 378
f 359 358 378 379
f 360 359 379 380
f 361 360 380 381
f 343 361 381 363
f 362 363 383 382
f 364 362 382 384
f 365 364 384 385
f 366 365 385 386
f 367 366 386 387
f 368 367 387 388
f 369 368 388 389
f 370 369 389 390
f 371 370 390 391
f 372 371 391 392
f 373 372 392 393
f 374 373 393 394
f 375 374 394 395
f 376 375 395 396
f 377 376 396 397
f 378 377 397 398
f 379 378 398 399
f 380 379 399 400
f 381 380 400 401
f 363 381 401 383
f 382 383 482 483
f 384 382 483 484
f 385 384 484 485
f 386 385 485 486
f 387 386 486 487
f 388 387 487 488
f 389 388 488 489
f 390 389 489 490
f 391 390 490 491
f 392 391 491 492
f 393 392 492 493
f 394 393 493 494
f 395 394 494 495
f 396 395 495 496
f 397 396 496 497
f 398 397 497 498
f 399 398 498 499
f 400 399 499 500
f 401 400 500 501
f 383 401 501 482
f 404 405 413 412
f 402 403 411 410
f 403 404 412 411
f 405 404 408 409
f 404 403 407 408
f 403 402 406 407
f 412 413 417 416
f 410 411 415 414
f 411 412 416 415
f 416 417 421 420
f 414 415 419 418
f 415 416 420 419
f 420 421 425 424
f 418 419 423 422
f 419 420 424 423
f 424 425 429 428
f 422 423 427 426
f 423 424 428 427
f 428 429 433 432
f 426 427 431 430
f 427 428 432 431
f 432 433 437 436
f 430 431 435 434
f 431 432 436 435
f 436 437 441 440
f 434 435 439 438
f 435 436 440 439
f 440 441 445 444
f 438 439 443 442
f 439 440 444 443
f 444 445 449 448
f 442 443 447 446
f 443 444 448 447
f 448 449 453 452
f 446 447 451 450
f 447 448 452 451
f 452 453 457 456
f 450 451 455 454
f 451 452 456 455
f 456 457 461 460
f 454 455 459 458
f 455 456 460 459
f 460 461 465 464
f 458 459 463 462
f 459 460 464 463
f 464 465 469 468
f 462 463 467 466
f 463 464 468 467
f 468 469 473 472
f 466 467 471 470
f 467 468 472 471
f 472 473 477 476
f 470 471 475 474
f 471 472 476 475
f 476 477 481 480
f 474 475 479 478
f 475 476 480 479
f 409 408 480 481
f 408 407 479 480
f 407 406 478 479
f 483 482 406 402
f 484 483 402 410
f 485 484 410 414
f 486 485 414 418
f 487 486 418 422
f 488 487 422 426
f 489 488 426 430
f 490 489 430 434
f 491 490 434 438
f 492 491 438 442
f 493 492 442 446
f 494 493 446 450
f 495 494 450 454
f 496 495 454 458
f 497 496 458 462
f 498 497 462 466
f 499 498 466 470
f 500 499 470 474
f 501 500 474 478
f 482 501 478 406
f 405 409 525 522
f 413 405 522 528
f 417 413 528 531
f 421 417 531 534
f 425 421 534 537
f 429 425 537 540
f 433 429 540 543
f 437 433 543 546
f 441 437 546 549
f 445 441 549 552
f 449 445 552 555
f 453 449 555 558
f 457 453 558 561
f 461 457 561 564
f 465 461 564 567
f 469 465 567 570
f 473 469 570 573
f 477 473 573 576
f 481 477 576 579
f 409 481 579 525
f 524 527 503 502
f 530 524 502 504
f 533 530 504 505
f 536 533 505 506
f 539 536 506 507
f 542 539 507 508
f 545 542 508 509
f 548 545 509 510
f 551 548 510 511
f 554 551 511 512
f 557 554 512 513
f 560 557 513 514
f 563 560 514 515
f 566 563 515 516
f 569 566 516 517
f 572 569 517 518
f 575 572 518 519
f 578 575 519 520
f 581 578 520 521
f 527 581 521 503
f 522 523 529 528
f 523 524 530 529
f 524 523 526 527
f 523 522 525 526
f 528 529 532 531
f 529 530 533 532
f 531 532 535 534
f 532 533 536 535
f 534 535 538 537
f 535 536 539 538
f 537 538 541 540
f 538 539 542 541
f 540 541 544 543
f 541 542 545 544
f 543 544 547 546
f 544 545 548 547
f 546 547 550 549
f 547 548 551 550
f 549 550 553 552
f 550 551 554 553
f 552 553 556 555
f 553 554 557 556
f 555 556 559 558
f 556 557 560 559
f 558 559 562 561
f 559 560 563 562
f 561 562 565 564
f 562 563 566 565
f 564 565 568 567
f 565 566 569 568
f 567 568 571 570
f 568 569 572 571
f 570 571 574 573
f 571 572 575 574
f 573 574 577 576
f 574 575 578 577
f 576 577 580 579
f 577 578 581 580
f 527 526 580 581
f 526 525 579 580
f 502 503 583 582
f 504 502 582 584
f 505 504 584 585
f 506 505 585 586
f 507 506 586 587
f 508 507 587 588
f 509 508 588 589
f 510 509 589 590
f 511 510 590 591
f 512 511 591 592
f 513 512 592 593
f 514 513 593 594
f 515 514 594 595
f 516 515 595 596
f 517 516 596 597
f 518 517 597 598
f 519 518 598 599
f 520 519 599 600
f 521 520 600 601
f 503 521 601 583
f 582 583 603 602
f 584 582 602 604
f 585 584 604 605
f 586 585 605 606
f 587 586 606 607
f 588 587 607 608
f 589 588 608 609
f 590 589 609 610
f 591 590 610 611
f 592 591 611 612
f 593 592 612 613
f 594 593 613 614
f 595 594 614 615
f 596 595 615 616
f 597 596 616 617
f 598 597 617 618
f 599 598 618 619
f 600 599 619 620
f 601 600 620 621
f 583 601 621 603
f 602 603 623 622
f 604 602 622 624
f 605 604 624 625
f 606 605 625 626
f 607 606 626 627
f 608 607 627 628
f 609 608 628 629
f 610 609 629 630
f 611 610 630 631
f 612 611 631 632
f 613 612 632 633
f 614 613 633 634
f 615 614 634 635
f 616 615 635 636
f 617 616 636 637
f 618 617 637 638
f 619 618 638 639
f 620 619 639 640
f 621 620 640 641
f 603 621 641 623
f 622 623 643 642
f 624 622 642 644
f 625 624 644 645
f 626 625 645 646
f 627 626 646 647
f 628 627 647 648
f 629 628 648 649
f 630 629 649 650
f 631 630 650 651
f 632 631 651 652
f 633 632 652 653
f 634 633 653 654
f 635 634 654 655
f 636 635 655 656
f 637 636 656 657
f 638 637 657 658
f 639 638 658 659
f 640 639 659 660
f 641 640 660 661
f 623 641 661 643
f 722 723 761 742
f 741 722 742 743
f 740 741 743 744
f 739 740 744 745
f 738 739 745 746
f 737 738 746 747
f 736 737 747 748
f 735 736 748 749
f 734 735 749 750
f 733 734 750 751
f 732 733 751 752
f 731 732 752 753
f 730 731 753 754
f 729 730 754 755
f 728 729 755 756
f 727 728 756 757
f 726 727 757 758
f 725 726 758 759
f 724 725 759 760
f 723 724 760 761
f 762 763 801 782
f 781 762 782 783
f 780 781 783 784
f 779 780 784 785
f 778 779 785 786
f 777 778 786 787
f 776 777 787 788
f 775 776 788 789
f 774 775 789 790
f 773 774 790 791
f 772 773 791 792
f 771 772 792 793
f 770 771 793 794
f 769 770 794 795
f 768 769 795 796
f 767 768 796 797
f 766 767 797 798
f 765 766 798 799
f 764 765 799 800
f 763 764 800 801
f 682 683 703 702
f 684 682 702 704
f 685 684 704 705
f 686 685 705 706
f 687 686 706 707
f 688 687 707 708
f 689 688 708 709
f 690 689 709 710
f 691 690 710 711
f 692 691 711 712
f 693 692 712 713
f 694 693 713 714
f 695 694 714 715
f 696 695 715 716
f 697 696 716 717
f 698 697 717 718
f 699 698 718 719
f 700 699 719 720
f 701 700 720 721
f 683 701 721 703
f 642 643 723 722
f 643 661 724 723
f 661 660 725 724
f 660 659 726 725
f 659 658 727 726
f 658 657 728 727
f 657 656 729 728
f 656 655 730 729
f 655 654 731 730
f 654 653 732 731
f 653 652 733 732
f 652 651 734 733
f 651 650 735 734
f 650 649 736 735
f 649 648 737 736
f 648 647 738 737
f 647 646 739 738
f 646 645 740 739
f 645 644 741 740
f 644 642 722 741
f 743 742 662 664
f 744 743 664 665
f 745 744 665 666
f 746 745 666 667
f 747 746 667 668
f 748 747 668 669
f 749 748 669 670
f 750 749 670 671
f 751 750 671 672
f 752 751 672 673
f 753 752 673 674
f 754 753 674 675
f 755 754 675 676
f 756 755 676 677
f 757 756 677 678
f 758 757 678 679
f 759 758 679 680
f 760 759 680 681
f 761 760 681 663
f 742 761 663 662
f 662 663 763 762
f 663 681 764 763
f 681 680 765 764
f 680 679 766 765
f 679 678 767 766
f 678 677 768 767
f 677 676 769 768
f 676 675 770 769
f 675 674 771 770
f 674 673 772 771
f 673 672 773 772
f 672 671 774 773
f 671 670 775 774
f 670 669 776 775
f 669 668 777 776
f 668 667 778 777
f 667 666 779 778
f 666 665 780 779
f 665 664 781 780
f 664 662 762 781
f 783 782 802 803
f 784 783 803 804
f 785 784 804 805
f 786 785 805 806
f 787 786 806 807
f 788 787 807 808
f 789 788 808 809
f 790 789 809 810
f 791 790 810 811
f 792 791 811 812
f 793 792 812 813
f 794 793 813 814
f 795 794 814 815
f 796 795 815 816
f 797 796 816 817
f 798 797 817 818
f 799 798 818 819
f 800 799 819 820
f 801 800 820 821
f 782 801 821 802
f 803 802 682 684
f 804 803 684 685
f 805 804 685 686
f 806 805 686 687
f 807 806 687 688
f 808 807 688 689
f 809 808 689 690
f 810 809 690 691
f 811 810 691 692
f 812 811 692 693
f 813 812 693 694
f 814 813 694 695
f 815 814 695 696
f 816 815 696 697
f 817 816 697 698
f 818 817 698 699
f 819 818 699 700
f 820 819 700 701
f 821 820 701 683
f 802 821 683 682
f 822 823 843 842
f 824 822 842 844
f 825 824 844 845
f 826 825 845 846
f 827 826 846 847
f 828 827 847 848
f 829 828 848 849
f 830 829 849 850
f 831 830 850 851
f 832 831 851 852
f 833 832 852 853
f 834 833 853 854
f 835 834 854 855
f 836 835 855 856
f 837 836 856 857
f 838 837 857 858
f 839 838 858 859
f 840 839 859 860
f 841 840 860 861
f 823 841 861 843
f 862 863 981 962
f 881 862 962 963
f 880 881 963 964
f 879 880 964 965
f 878 879 965 966
f 877 878 966 967
f 876 877 967 968
f 875 876 968 969
f 874 875 969 970
f 873 874 970 971
f 872 873 971 972
f 871 872 972 973
f 870 871 973 974
f 869 870 974 975
f 868 869 975 976
f 867 868 976 977
f 866 867 977 978
f 865 866 978 979
f 864 865 979 980
f 863 864 980 981
f 882 883 863 862
f 883 884 864 863
f 884 885 865 864
f 885 886 866 865
f 886 887 867 866
f 887 888 868 867
f 888 889 869 868
f 889 890 870 869
f 890 891 871 870
f 891 892 872 871
f 892 893 873 872
f 893 894 874 873
f 894 895 875 874
f 895 896 876 875
f 896 897 877 876
f 897 898 878 877
f 898 899 879 878
f 899 900 880 879
f 900 901 881 880
f 901 882 862 881
f 902 903 883 882
f 903 904 884 883
f 904 905 885 884
f 905 906 886 885
f 906 907 887 886
f 907 908 888 887
f 908 909 889 888
f 909 910 890 889
f 910 911 891 890
f 911 912 892 891
f 912 913 893 892
f 913 914 894 893
f 914 915 895 894
f 915 916 896 895
f 916 917 897 896
f 917 918 898 897
f 918 919 899 898
f 919 920 900 899
f 920 921 901 900
f 921 902 882 901
f 922 923 903 902
f 923 924 904 903
f 924 925 905 904
f 925 926 906 905
f 926 927 907 906
f 927 928 908 907
f 928 929 909 908
f 929 930 910 909
f 930 931 911 910
f 931 932 912 911
f 932 933 913 912
f 933 934 914 913
f 934 935 915 914
f 935 936 916 915
f 936 937 917 916
f 937 938 918 917
f 938 939 919 918
f 939 940 920 919
f 940 941 921 920
f 941 922 902 921
f 942 943 923 922
f 943 944 924 923
f 944 945 925 924
f 945 946 926 925
f 946 947 927 926
f 947 948 928 927
f 948 949 929 928
f 949 950 930 929
f 950 951 931 930
f 951 952 932 931
f 952 953 933 932
f 953 954 934 933
f 954 955 935 934
f 955 956 936 935
f 956 957 937 936
f 957 958 938 937
f 958 959 939 938
f 959 960 940 939
f 960 961 941 940
f 961 942 922 941
f 842 843 943 942
f 843 861 944 943
f 861 860 945 944
f 860 859 946 945
f 859 858 947 946
f 858 857 948 947
f 857 856 949 948
f 856 855 950 949
f 855 854 951 950
f 854 853 952 951
f 853 852 953 952
f 852 851 954 953
f 851 850 955 954
f 850 849 956 955
f 849 848 957 956
f 848 847 958 957
f 847 846 959 958
f 846 845 960 959
f 845 844 961 960
f 844 842 942 961
f 702 703 1042 1043
f 704 702 1043 1044
f 705 704 1044 1045
f 706 705 1045 1046
f 707 706 1046 1047
f 708 707 1047 1048
f 709 708 1048 1049
f 710 709 1049 1050
f 711 710 1050 1051
f 712 711 1051 1052
f 713 712 1052 1053
f 714 713 1053 1054
f 715 714 1054 1055
f 716 715 1055 1056
f 717 716 1056 1057
f 718 717 1057 1058
f 719 718 1058 1059
f 720 719 1059 1060
f 721 720 1060 1061
f 703 721 1061 1042
f 984 987 823 822
f 990 984 822 824
f 993 990 824 825
f 996 993 825 826
f 999 996 826 827
f 1002 999 827 828
f 1005 1002 828 829
f 1008 1005 829 830
f 1011 1008 830 831
f 1014 1011 831 832
f 1017 1014 832 833
f 1020 1017 833 834
f 1023 1020 834 835
f 1026 1023 835 836
f 1029 1026 836 837
f 1032 1029 837 838
f 1035 1032 838 839
f 1038 1035 839 840
f 1041 1038 840 841
f 987 1041 841 823
f 982 983 989 988
f 983 984 990 989
f 984 983 986 987
f 983 982 985 986
f 988 989 992 991
f 989 990 993 992
f 991 992 995 994
f 992 993 996 995
f 994 995 998 997
f 995 996 999 998
f 997 998 1001 1000
f 998 999 1002 1001
f 1000 1001 1004 1003
f 1001 1002 1005 1004
f 1003 1004 1007 1006
f 1004 1005 1008 1007
f 1006 1007 1010 1009
f 1007 1008 1011 1010
f 1009 1010 1013 1012
f 1010 1011 1014 1013
f 1012 1013 1016 1015
f 1013 1014 1017 1016
f 1015 1016 1019 1018
f 1016 1017 1020 1019
f 1018 1019 1022 1021
f 1019 1020 1023 1022
f 1021 1022 1025 1024
f 1022 1023 1026 1025
f 1024 1025 1028 1027
f 1025 1026 1029 1028
f 1027 1028 1031 1030
f 1028 1029 1032 1031
f 1030 1031 1034 1033
f 1031 1032 1035 1034
f 1033 1034 1037 1036
f 1034 1035 1038 1037
f 1036 1037 1040 1039
f 1037 1038 1041 1040
f 987 986 1040 1041
f 986 985 1039 1040
f 1043 1042 985 982
f 1044 1043 982 988
f 1045 1044 988 991
f 1046 1045 991 994
f 1047 1046 994 997
f 1048 1047 997 1000
f 1049 1048 1000 1003
f 1050 1049 1003 1006
f 1051 1050 1006 1009
f 1052 1051 1009 1012
f 1053 1052 1012 1015
f 1054 1053 1015 1018
f 1055 1054 1018 1021
f 1056 1055 1021 1024
f 1057 1056 1024 1027
f 1058 1057 1027 1030
f 1059 1058 1030 1033
f 1060 1059 1033 1036
f 1061 1060 1036 1039
f 1042 1061 1039 985
f 1082 1083 1121 1102
f 1101 1082 1102 1103
f 1100 1101 1103 1104
f 1099 1100 1104 1105
f 1098 1099 1105 1106
f 1097 1098 1106 1107
f 1096 1097 1107 1108
f 1095 1096 1108 1109
f 1094 1095 1109 1110
f 1093 1094 1110 1111
f 1092 1093 1111 1112
f 1091 1092 1112 1113
f 1090 1091 1113 1114
f 1089 1090 1114 1115
f 1088 1089 1115 1116
f 1087 1088 1116 1117
f 1086 1087 1117 1118
f 1085 1086 1118 1119
f 1084 1085 1119 1120
f 1083 1084 1120 1121
f 1103 1102 1122 1123
f 1104 1103 1123 1124
f 1105 1104 1124 1125
f 1106 1105 1125 1126
f 1107 1106 1126 1127
f 1108 1107 1127 1128
f 1109 1108 1128 1129
f 1110 1109 1129 1130
f 1111 1110 1130 1131
f 1112 1111 1131 1132
f 1113 1112 1132 1133
f 1114 1113 1133 1134
f 1115 1114 1134 1135
f 1116 1115 1135 1136
f 1117 1116 1136 1137
f 1118 1117 1137 1138
f 1119 1118 1138 1139
f 1120 1119 1139 1140
f 1121 1120 1140 1141
f 1102 1121 1141 1122
f 1123 1122 1142 1143
f 1124 1123 1143 1144
f 1125 1124 1144 1145
f 1126 1125 1145 1146
f 1127 1126 1146 1147
f 1128 1127 1147 1148
f 1129 1128 1148 1149
f 1130 1129 1149 1150
f 1131 1130 1150 1151
f 1132 1131 1151 1152
f 1133 1132 1152 1153
f 1134 1133 1153 1154
f 1135 1134 1154 1155
f 1136 1135 1155 1156
f 1137 1136 1156 1157
f 1138 1137 1157 1158
f 1139 1138 1158 1159
f 1140 1139 1159 1160
f 1141 1140 1160 1161
f 1122 1141 1161 1142
f 1143 1142 1062 1064
f 1144 1143 1064 1065
f 1145 1144 1065 1066
f 1146 1145 1066 1067
f 1147 1146 1067 1068
f 1148 1147 1068 1069
f 1149 1148 1069 1070
f 1150 1149 1070 1071
f 1151 1150 1071 1072
f 1152 1151 1072 1073
f 1153 1152 1073 1074
f 1154 1153 1074 1075
f 1155 1154 1075 1076
f 1156 1155 1076 1077
f 1157 1156 1077 1078
f 1158 1157 1078 1079
f 1159 1158 1079 1080
f 1160 1159 1080 1081
f 1161 1160 1081 1063
f 1142 1161 1063 1062
f 963 962 1162 1168
f 964 963 1168 1171
f 965 964 1171 1174
f 966 965 1174 1177
f 967 966 1177 1180
f 968 967 1180 1183
f 969 968 1183 1186
f 970 969 1186 1189
f 971 970 1189 1192
f 972 971 1192 1195
f 973 972 1195 1198
f 974 973 1198 1201
f 975 974 1201 1204
f 976 975 1204 1207
f 977 976 1207 1210
f 978 977 1210 1213
f 979 978 1213 1216
f 980 979 1216 1219
f 981 980 1219 1165
f 962 981 1165 1162
f 1164 1167 1083 1082
f 1167 1221 1084 1083
f 1221 1218 1085 1084
f 1218 1215 1086 1085
f 1215 1212 1087 1086
f 1212 1209 1088 1087
f 1209 1206 1089 1088
f 1206 1203 1090 1089
f 1203 1200 1091 1090
f 1200 1197 1092 1091
f 1197 1194 1093 1092
f 1194 1191 1094 1093
f 1191 1188 1095 1094
f 1188 1185 1096 1095
f 1185 1182 1097 1096
f 1182 1179 1098 1097
f 1179 1176 1099 1098
f 1176 1173 1100 1099
f 1173 1170 1101 1100
f 1170 1164 1082 1101
f 1162 1163 1169 1168
f 1163 1164 1170 1169
f 1164 1163 1166 1167
f 1163 1162 1165 1166
f 1168 1169 1172 1171
f 1169 1170 1173 1172
f 1171 1172 1175 1174
f 1172 1173 1176 1175
f 1174 1175 1178 1177
f 1175 1176 1179 1178
f 1177 1178 1181 1180
f 1178 1179 1182 1181
f 1180 1181 1184 1183
f 1181 1182 1185 1184
f 1183 1184 1187 1186
f 1184 1185 1188 1187
f 1186 1187 1190 1189
f 1187 1188 1191 1190
f 1189 1190 1193 1192
f 1190 1191 1194 1193
f 1192 1193 1196 1195
f 1193 1194 1197 1196
f 1195 1196 1199 1198
f 1196 1197 1200 1199
f 1198 1199 1202 1201
f 1199 1200 1203 1202
f 1201 1202 1205 1204
f 1202 1203 1206 1205
f 1204 1205 1208 1207
f 1205 1206 1209 1208
f 1207 1208 1211 1210
f 1208 1209 1212 1211
f 1210 1211 1214 1213
f 1211 1212 1215 1214
f 1213 1214 1217 1216
f 1214 1215 1218 1217
f 1216 1217 1220 1219
f 1217 1218 1221 1220
f 1167 1166 1220 1221
f 1166 1165 1219 1220
f 1343 1344 1243 1242
f 1362 1343 1242 1244
f 1361 1362 1244 1245
f 1360 1361 1245 1246
f 1359 1360 1246 1247
f 1358 1359 1247 1248
f 1357 1358 1248 1249
f 1356 1357 1249 1250
f 1355 1356 1250 1251
f 1354 1355 1251 1252
f 1353 1354 1252 1253
f 1352 1353 1253 1254
f 1351 1352 1254 1255
f 1350 1351 1255 1256
f 1349 1350 1256 1257
f 1348 1349 1257 1258
f 1347 1348 1258 1259
f 1346 1347 1259 1260
f 1345 1346 1260 1261
f 1344 1345 1261 1243
f 1262 1263 1283 1282
f 1264 1262 1282 1284
f 1265 1264 1284 1285
f 1266 1265 1285 1286
f 1267 1266 1286 1287
f 1268 1267 1287 1288
f 1269 1268 1288 1289
f 1270 1269 1289 1290
f 1271 1270 1290 1291
f 1272 1271 1291 1292
f 1273 1272 1292 1293
f 1274 1273 1293 1294
f 1275 1274 1294 1295
f 1276 1275 1295 1296
f 1277 1276 1296 1297
f 1278 1277 1297 1298
f 1279 1278 1298 1299
f 1280 1279 1299 1300
f 1281 1280 1300 1301
f 1263 1281 1301 1283
f 1222 1223 1344 1343
f 1223 1241 1345 1344
f 1241 1240 1346 1345
f 1240 1239 1347 1346
f 1239 1238 1348 1347
f 1238 1237 1349 1348
f 1237 1236 1350 1349
f 1236 1235 1351 1350
f 1235 1234 1352 1351
f 1234 1233 1353 1352
f 1233 1232 1354 1353
f 1232 1231 1355 1354
f 1231 1230 1356 1355
f 1230 1229 1357 1356
f 1229 1228 1358 1357
f 1228 1227 1359 1358
f 1227 1226 1360 1359
f 1226 1225 1361 1360
f 1225 1224 1362 1361
f 1224 1222 1343 1362
f 1365 1364 1367 1366
f 1364 1363 1368 1367
f 1305 1304 1365 1366
f 1304 1307 1371 1365
f 1307 1309 1374 1371
f 1309 1311 1377 1374
f 1311 1313 1380 1377
f 1313 1315 1383 1380
f 1315 1317 1386 1383
f 1317 1319 1389 1386
f 1319 1321 1392 1389
f 1321 1323 1395 1392
f 1323 1325 1398 1395
f 1325 1327 1401 1398
f 1327 1329 1404 1401
f 1329 1331 1407 1404
f 1331 1333 1410 1407
f 1333 1335 1413 1410
f 1335 1337 1416 1413
f 1337 1339 1419 1416
f 1339 1341 1422 1419
f 1341 1305 1366 1422
f 1282 1283 1368 1363
f 1284 1282 1363 1369
f 1285 1284 1369 1372
f 1286 1285 1372 1375
f 1287 1286 1375 1378
f 1288 1287 1378 1381
f 1289 1288 1381 1384
f 1290 1289 1384 1387
f 1291 1290 1387 1390
f 1292 1291 1390 1393
f 1293 1292 1393 1396
f 1294 1293 1396 1399
f 1295 1294 1399 1402
f 1296 1295 1402 1405
f 1297 1296 1405 1408
f 1298 1297 1408 1411
f 1299 1298 1411 1414
f 1300 1299 1414 1417
f 1301 1300 1417 1420
f 1283 1301 1420 1368
f 1363 1364 1370 1369
f 1364 1365 1371 1370
f 1369 1370 1373 1372
f 1370 1371 1374 1373
f 1372 1373 1376 1375
f 1373 1374 1377 1376
f 1375 1376 1379 1378
f 1376 1377 1380 1379
f 1378 1379 1382 1381
f 1379 1380 1383 1382
f 1381 1382 1385 1384
f 1382 1383 1386 1385
f 1384 1385 1388 1387
f 1385 1386 1389 1388
f 1387 1388 1391 1390
f 1388 1389 1392 1391
f 1390 1391 1394 1393
f 1391 1392 1395 1394
f 1393 1394 1397 1396
f 1394 1395 1398 1397
f 1396 1397 1400 1399
f 1397 1398 1401 1400
f 1399 1400 1403 1402
f 1400 1401 1404 1403
f 1402 1403 1406 1405
f 1403 1404 1407 1406
f 1405 1406 1409 1408
f 1406 1407 1410 1409
f 1408 1409 1412 1411
f 1409 1410 1413 1412
f 1411 1412 1415 1414
f 1412 1413 1416 1415
f 1414 1415 1418 1417
f 1415 1416 1419 1418
f 1417 1418 1421 1420
f 1418 1419 1422 1421
f 1366 1367 1421 1422
f 1367 1368 1420 1421
f 1425 1424 1427 1426
f 1424 1423 1428 1427
f 1485 1484 1487 1486
f 1484 1483 1488 1487
f 1425 1426 1540 1485
f 1480 1425 1485 1486
f 1477 1480 1486 1489
f 1474 1477 1489 1492
f 1471 1474 1492 1495
f 1468 1471 1495 1498
f 1465 1468 1498 1501
f 1462 1465 1501 1504
f 1459 1462 1504 1507
f 1456 1459 1507 1510
f 1453 1456 1510 1513
f 1450 1453 1513 1516
f 1447 1450 1516 1519
f 1444 1447 1519 1522
f 1441 1444 1522 1525
f 1438 1441 1525 1528
f 1435 1438 1528 1531
f 1432 1435 1531 1534
f 1429 1432 1534 1537
f 1426 1429 1537 1540
f 1242 1243 1428 1423
f 1243 1261 1431 1428
f 1261 1260 1434 1431
f 1260 1259 1437 1434
f 1259 1258 1440 1437
f 1258 1257 1443 1440
f 1257 1256 1446 1443
f 1256 1255 1449 1446
f 1255 1254 1452 1449
f 1254 1253 1455 1452
f 1253 1252 1458 1455
f 1252 1251 1461 1458
f 1251 1250 1464 1461
f 1250 1249 1467 1464
f 1249 1248 1470 1467
f 1248 1247 1473 1470
f 1247 1246 1476 1473
f 1246 1245 1479 1476
f 1245 1244 1482 1479
f 1244 1242 1423 1482
f 1488 1483 1262 1264
f 1491 1488 1264 1265
f 1494 1491 1265 1266
f 1497 1494 1266 1267
f 1500 1497 1267 1268
f 1503 1500 1268 1269
f 1506 1503 1269 1270
f 1509 1506 1270 1271
f 1512 1509 1271 1272
f 1515 1512 1272 1273
f 1518 1515 1273 1274
f 1521 1518 1274 1275
f 1524 1521 1275 1276
f 1527 1524 1276 1277
f 1530 1527 1277 1278
f 1533 1530 1278 1279
f 1536 1533 1279 1280
f 1539 1536 1280 1281
f 1542 1539 1281 1263
f 1483 1542 1263 1262
f 1426 1427 1430 1429
f 1427 1428 1431 1430
f 1429 1430 1433 1432
f 1430 1431 1434 1433
f 1432 1433 1436 1435
f 1433 1434 1437 1436
f 1435 1436 1439 1438
f 1436 1437 1440 1439
f 1438 1439 1442 1441
f 1439 1440 1443 1442
f 1441 1442 1445 1444
f 1442 1443 1446 1445
f 1444 1445 1448 1447
f 1445 1446 1449 1448
f 1447 1448 1451 1450
f 1448 1449 1452 1451
f 1450 1451 1454 1453
f 1451 1452 1455 1454
f 1453 1454 1457 1456
f 1454 1455 1458 1457
f 1456 1457 1460 1459
f 1457 1458 1461 1460
f 1459 1460 1463 1462
f 1460 1461 1464 1463
f 1462 1463 1466 1465
f 1463 1464 1467 1466
f 1465 1466 1469 1468
f 1466 1467 1470 1469
f 1468 1469 1472 1471
f 1469 1470 1473 1472
f 1471 1472 1475 1474
f 1472 1473 1476 1475
f 1474 1475 1478 1477
f 1475 1476 1479 1478
f 1477 1478 1481 1480
f 1478 1479 1482 1481
f 1423 1424 1481 1482
f 1424 1425 1480 1481
f 1486 1487 1490 1489
f 1487 1488 1491 1490
f 1489 1490 1493 1492
f 1490 1491 1494 1493
f 1492 1493 1496 1495
f 1493 1494 1497 1496
f 1495 1496 1499 1498
f 1496 1497 1500 1499
f 1498 1499 1502 1501
f 1499 1500 1503 1502
f 1501 1502 1505 1504
f 1502 1503 1506 1505
f 1504 1505 1508 1507
f 1505 1506 1509 1508
f 1507 1508 1511 1510
f 1508 1509 1512 1511
f 1510 1511 1514 1513
f 1511 1512 1515 1514
f 1513 1514 1517 1516
f 1514 1515 1518 1517
f 1516 1517 1520 1519
f 1517 1518 1521 1520
f 1519 1520 1523 1522
f 1520 1521 1524 1523
f 1522 1523 1526 1525
f 1523 1524 1527 1526
f 1525 1526 1529 1528
f 1526 1527 1530 1529
f 1528 1529 1532 1531
f 1529 1530 1533 1532
f 1531 1532 1535 1534
f 1532 1533 1536 1535
f 1534 1535 1538 1537
f 1535 1536 1539 1538
f 1537 1538 1541 1540
f 1538 1539 1542 1541
f 1483 1484 1541 1542
f 1484 1485 1540 1541
f 1062 1063 1548 1543
f 1064 1062 1543 1553
f 1065 1064 1553 1558
f 1066 1065 1558 1563
f 1067 1066 1563 1568
f 1068 1067 1568 1573
f 1069 1068 1573 1578
f 1070 1069 1578 1583
f 1071 1070 1583 1588
f 1072 1071 1588 1593
f 1073 1072 1593 1598
f 1074 1073 1598 1603
f 1075 1074 1603 1608
f 1076 1075 1608 1613
f 1077 1076 1613 1618
f 1078 1077 1618 1623
f 1079 1078 1623 1628
f 1080 1079 1628 1633
f 1081 1080 1633 1638
f 1063 1081 1638 1548
f 1547 1552 1223 1222
f 1557 1547 1222 1224
f 1562 1557 1224 1225
f 1567 1562 1225 1226
f 1572 1567 1226 1227
f 1577 1572 1227 1228
f 1582 1577 1228 1229
f 1587 1582 1229 1230
f 1592 1587 1230 1231
f 1597 1592 1231 1232
f 1602 1597 1232 1233
f 1607 1602 1233 1234
f 1612 1607 1234 1235
f 1617 1612 1235 1236
f 1622 1617 1236 1237
f 1627 1622 1237 1238
f 1632 1627 1238 1239
f 1637 1632 1239 1240
f 1642 1637 1240 1241
f 1552 1642 1241 1223
f 1546 1547 1557 1556
f 1545 1546 1556 1555
f 1543 1544 1554 1553
f 1544 1545 1555 1554
f 1547 1546 1551 1552
f 1546 1545 1550 1551
f 1545 1544 1549 1550
f 1544 1543 1548 1549
f 1556 1557 1562 1561
f 1555 1556 1561 1560
f 1553 1554 1559 1558
f 1554 1555 1560 1559
f 1561 1562 1567 1566
f 1560 1561 1566 1565
f 1558 1559 1564 1563
f 1559 1560 1565 1564
f 1566 1567 1572 1571
f 1565 1566 1571 1570
f 1563 1564 1569 1568
f 1564 1565 1570 1569
f 1571 1572 1577 1576
f 1570 1571 1576 1575
f 1568 1569 1574 1573
f 1569 1570 1575 1574
f 1576 1577 1582 1581
f 1575 1576 1581 1580
f 1573 1574 1579 1578
f 1574 1575 1580 1579
f 1581 1582 1587 1586
f 1580 1581 1586 1585
f 1578 1579 1584 1583
f 1579 1580 1585 1584
f 1586 1587 1592 1591
f 1585 1586 1591 1590
f 1583 1584 1589 1588
f 1584 1585 1590 1589
f 1591 1592 1597 1596
f 1590 1591 1596 1595
f 1588 1589 1594 1593
f 1589 1590 1595 1594
f 1596 1597 1602 1601
f 1595 1596 1601 1600
f 1593 1594 1599 1598
f 1594 1595 1600 1599
f 1601 1602 1607 1606
f 1600 1601 1606 1605
f 1598 1599 1604 1603
f 1599 1600 1605 1604
f 1606 1607 1612 1611
f 1605 1606 1611 1610
f 1603 1604 1609 1608
f 1604 1605 1610 1609
f 1611 1612 1617 1616
f 1610 1611 1616 1615
f 1608 1609 1614 1613
f 1609 1610 1615 1614
f 1616 1617 1622 1621
f 1615 1616 1621 1620
f 1613 1614 1619 1618
f 1614 1615 1620 1619
f 1621 1622 1627 1626
f 1620 1621 1626 1625
f 1618 1619 1624 1623
f 1619 1620 1625 1624
f 1626 1627 1632 1631
f 1625 1626 1631 1630
f 1623 1624 1629 1628
f 1624 1625 1630 1629
f 1631 1632 1637 1636
f 1630 1631 1636 1635
f 1628 1629 1634 1633
f 1629 1630 1635 1634
f 1636 1637 1642 1641
f 1635 1636 1641 1640
f 1633 1634 1639 1638
f 1634 1635 1640 1639
f 1552 1551 1641 1642
f 1551 1550 1640 1641
f 1550 1549 1639 1640
f 1549 1548 1638 1639
